<?xml version="1.0" standalone="no"?>
<!DOCTYPE svg PUBLIC "-//W3C//DTD SVG 20010904//EN"
 "http://www.w3.org/TR/2001/REC-SVG-20010904/DTD/svg10.dtd">
<svg version="1.0" xmlns="http://www.w3.org/2000/svg"
 width="512.000000pt" height="512.000000pt" viewBox="0 0 512.000000 512.000000"
 preserveAspectRatio="xMidYMid meet">

<g transform="translate(0.000000,512.000000) scale(0.100000,-0.100000)"
fill="#000000" stroke="none">
<path d="M3095 5033 c-215 -124 -266 -155 -261 -160 3 -3 72 33 153 80 178
102 207 117 228 117 18 0 165 -81 165 -91 0 -4 -11 -9 -24 -13 -38 -10 -2148
-1231 -2193 -1270 -23 -20 -54 -62 -70 -94 -25 -51 -28 -70 -32 -174 -2 -65
-5 -118 -7 -118 -3 0 -41 21 -85 47 l-81 47 4 121 c5 139 24 192 93 260 27 26
313 197 826 492 731 422 852 493 807 479 -9 -3 -376 -212 -815 -466 -863 -499
-862 -498 -902 -606 -20 -52 -21 -75 -21 -514 0 -332 3 -460 11 -460 8 0 9 91
4 336 -4 198 -4 335 1 333 5 -2 44 -23 87 -47 l77 -43 0 -518 c0 -285 3 -749
7 -1031 l6 -513 -53 29 c-29 16 -68 43 -86 60 l-34 31 0 522 c0 355 -3 521
-10 521 -17 0 -9 -1028 8 -1061 9 -16 55 -49 123 -89 95 -54 114 -62 147 -57
24 3 160 76 382 204 190 110 347 199 349 197 1 -1 -25 -86 -58 -187 l-62 -185
-59 -36 c-103 -64 -160 -162 -145 -251 42 -265 582 -393 926 -220 208 105 253
282 107 421 -24 23 -61 53 -84 67 -40 25 -41 26 -106 228 -104 322 -127 394
-125 395 8 8 1010 584 1012 582 2 -2 -24 -87 -57 -189 l-60 -185 -42 -22 c-23
-13 -61 -42 -85 -65 -171 -165 -61 -381 239 -467 97 -28 281 -37 387 -20 194
31 353 125 399 236 18 43 18 116 0 159 -20 47 -84 114 -144 150 l-50 30 -57
175 c-54 164 -84 235 -69 164 6 -29 3 -32 -43 -52 -72 -31 -169 -44 -246 -33
-70 10 -167 47 -167 64 0 13 52 180 59 187 2 3 6 -1 8 -8 8 -21 82 -53 137
-59 63 -6 126 10 165 43 28 23 30 23 40 7 14 -25 14 0 -1 49 -20 67 -89 108
-184 108 l-41 0 -6 713 c-4 391 -7 898 -7 1125 l0 414 -27 27 c-46 45 -206
131 -244 131 -22 0 -63 -17 -114 -47z m351 -94 c16 -18 20 -40 22 -138 l3
-116 -1192 -688 c-655 -378 -1195 -685 -1198 -682 -3 3 -5 54 -5 113 0 100 2
111 31 167 17 33 44 72 60 87 22 21 1590 934 2103 1224 104 59 145 67 176 33z
m24 -1161 c0 -486 3 -933 7 -995 l6 -112 -47 -22 c-52 -24 -62 -39 -95 -149
l-23 -75 -524 -303 c-512 -295 -525 -302 -552 -288 -44 22 -107 28 -166 16
-82 -17 -101 -37 -132 -138 -15 -48 -32 -92 -38 -99 -13 -13 -639 -375 -703
-406 -51 -25 -91 -16 -110 23 -9 19 -12 285 -14 1039 -2 991 -2 1015 17 1027
47 31 2360 1364 2367 1364 4 0 7 -397 7 -882z m140 -1134 c41 -8 90 -50 90
-78 0 -49 -68 -86 -160 -86 -66 0 -105 12 -137 42 -47 44 -13 100 74 124 46
12 62 12 133 -2z m-257 -348 c99 -44 261 -46 368 -2 l60 24 10 -26 c6 -15 13
-41 16 -59 5 -28 1 -34 -33 -57 -71 -46 -121 -59 -234 -59 -115 -1 -185 19
-244 68 l-30 24 18 56 c9 31 20 55 24 53 4 -2 24 -12 45 -22z m62 -181 c120
-31 264 -13 359 46 27 16 50 28 51 27 2 -2 13 -34 24 -73 l22 -69 -23 -19
c-124 -98 -383 -118 -543 -41 -27 13 -60 33 -72 43 l-23 19 20 58 c11 33 22
65 25 71 3 9 19 4 52 -17 26 -16 75 -36 108 -45z m484 -172 c2 -50 -102 -125
-209 -151 -183 -43 -372 -8 -472 88 l-48 46 16 47 c9 26 18 47 20 47 2 0 28
-13 57 -29 165 -92 424 -88 568 8 l44 30 12 -32 c6 -18 12 -42 12 -54z m-754
-54 c-24 -72 -26 -86 -16 -120 74 -246 642 -281 798 -50 30 45 30 107 -1 199
-14 40 -22 72 -18 72 12 0 55 -31 95 -69 165 -154 54 -357 -238 -437 -93 -25
-294 -30 -395 -10 -157 32 -272 95 -334 184 -23 32 -31 56 -34 99 -3 52 0 64
30 112 33 55 129 133 136 112 2 -6 -9 -48 -23 -92z m794 -82 c2 -92 -90 -173
-239 -212 -75 -19 -234 -22 -305 -4 -150 37 -255 122 -255 207 0 25 17 89 26
101 2 2 24 -15 50 -37 160 -142 522 -135 664 12 l35 37 12 -33 c6 -18 12 -50
12 -71z m-1702 12 c43 -21 59 -47 51 -85 -5 -27 -48 -53 -109 -66 -48 -10 -63
-9 -114 8 -108 35 -123 103 -32 144 58 27 148 26 204 -1z m-179 -159 c78 -21
170 -7 220 35 l28 24 31 -95 31 -95 -21 -14 c-83 -54 -265 -67 -367 -27 -88
35 -85 27 -50 136 l31 97 30 -25 c16 -14 46 -30 67 -36z m-135 -164 c89 -59
336 -58 425 0 13 9 25 14 26 12 2 -2 11 -25 20 -53 l17 -50 -34 -30 c-58 -51
-127 -70 -247 -69 -82 0 -117 5 -160 22 -61 24 -114 67 -106 87 2 7 10 31 17
54 7 23 14 41 16 41 2 0 14 -7 26 -14z m-38 -136 c52 -57 251 -87 375 -56 36
9 85 30 109 47 24 16 44 29 46 27 1 -2 12 -34 25 -71 26 -79 23 -85 -54 -124
-77 -39 -141 -53 -251 -53 -136 0 -262 37 -311 91 -17 19 -17 22 5 89 12 39
26 70 30 70 4 0 16 -9 26 -20z m599 -186 c14 -43 14 -49 -1 -75 -34 -57 -135
-110 -247 -130 -173 -30 -389 30 -451 125 -13 20 -14 30 -3 70 7 25 16 46 21
46 4 0 25 -11 45 -25 139 -96 448 -93 578 4 21 16 40 30 41 30 0 1 8 -20 17
-45z m-740 -75 c-44 -128 -20 -204 85 -270 195 -124 563 -92 678 59 48 63 51
100 19 200 -15 46 -26 86 -23 88 6 6 95 -62 119 -90 35 -40 51 -81 51 -131 3
-266 -538 -407 -893 -233 -113 55 -190 152 -190 239 0 35 43 120 76 150 30 28
96 70 101 65 2 -1 -9 -36 -23 -77z m785 -68 c22 -99 -44 -182 -182 -231 -227
-80 -520 -16 -595 130 -24 46 -24 77 -3 134 l11 28 41 -37 c75 -68 193 -105
331 -105 48 0 111 5 140 11 76 16 171 64 205 102 31 37 37 34 52 -32z"/>
<path d="M1829 3965 c-54 -29 -78 -133 -36 -159 40 -25 112 49 112 115 0 56
-26 71 -76 44z m59 -37 c7 -56 -51 -120 -94 -104 -42 16 23 141 71 134 13 -2
21 -12 23 -30z"/>
<path d="M1591 3827 c-34 -17 -61 -56 -68 -100 -10 -66 39 -90 91 -42 45 42
60 109 30 139 -19 19 -22 19 -53 3z m55 -31 c11 -44 -57 -133 -92 -119 -18 7
-18 56 1 93 27 52 80 67 91 26z"/>
<path d="M1354 3690 c-11 -5 -33 -23 -48 -40 -22 -27 -26 -41 -24 -79 3 -42 5
-46 32 -49 55 -7 118 86 96 142 -10 28 -28 36 -56 26z m44 -42 c6 -54 -54
-127 -93 -112 -14 6 -16 15 -12 47 10 76 98 131 105 65z"/>
<path d="M3053 4230 c-39 -24 -39 -23 -233 -422 -152 -313 -165 -345 -162
-395 2 -22 76 -73 106 -73 9 0 71 32 137 70 66 39 122 70 124 70 3 0 5 -17 5
-37 0 -46 6 -55 50 -82 48 -29 74 -26 104 10 24 28 26 38 26 124 l0 94 45 27
c55 32 75 58 75 99 0 24 -7 34 -40 53 -21 12 -48 22 -59 22 -20 0 -21 5 -21
200 l0 200 -42 30 c-48 35 -71 37 -115 10z m77 -10 c13 -9 12 -12 -4 -22 -11
-6 -29 -21 -40 -33 -28 -30 -358 -711 -365 -753 l-6 -33 -23 21 c-17 16 -21
28 -16 48 3 15 83 187 178 382 146 301 177 358 205 377 38 25 49 27 71 13z
m58 -275 c1 -132 4 -246 7 -253 4 -10 16 -6 48 13 54 31 67 31 67 2 0 -26 -25
-52 -82 -86 l-38 -23 0 -99 c0 -93 -2 -102 -25 -125 -14 -14 -30 -22 -35 -19
-6 3 -10 49 -10 101 0 52 -4 94 -9 94 -5 0 -84 -43 -175 -96 -95 -55 -173 -94
-181 -90 -32 12 -12 70 121 342 75 153 154 316 176 362 28 59 49 89 71 103 62
38 62 39 65 -226z m66 -181 c23 -9 20 -17 -14 -37 -30 -18 -30 -18 -30 6 0 35
12 43 44 31z m-154 -314 c0 -38 -4 -70 -9 -70 -39 0 -57 100 -23 126 29 22 32
17 32 -56z"/>
<path d="M3056 3968 c-24 -51 -87 -182 -140 -292 -53 -109 -94 -201 -92 -204
3 -2 70 33 151 79 l145 83 0 207 c0 128 -4 210 -10 214 -6 3 -30 -35 -54 -87z
m40 -305 c-2 -2 -13 2 -25 9 -19 12 -21 22 -21 125 0 96 3 119 23 159 l22 46
3 -167 c1 -92 1 -170 -2 -172z m-66 107 l0 -89 -57 -34 c-32 -19 -59 -33 -60
-32 -3 2 111 245 114 245 2 0 3 -40 3 -90z m40 -120 c8 -5 12 -11 10 -14 -12
-11 -215 -124 -218 -121 -13 13 37 66 95 102 72 43 89 49 113 33z"/>
<path d="M2269 3778 c-89 -44 -178 -136 -223 -231 -59 -122 -78 -212 -80 -367
-1 -207 32 -284 149 -344 67 -35 108 -33 192 9 95 47 171 129 223 237 63 133
75 190 75 368 0 141 -2 160 -24 208 -38 84 -132 152 -209 152 -23 0 -64 -13
-103 -32z m146 6 c11 -5 1 -12 -35 -24 -115 -39 -214 -134 -276 -265 -51 -108
-66 -175 -71 -330 -4 -134 1 -176 31 -260 6 -15 2 -14 -18 8 -44 48 -61 125
-60 272 2 156 23 246 85 365 80 154 250 270 344 234z m98 -58 c60 -56 83 -154
74 -324 -7 -135 -24 -207 -74 -312 -63 -132 -198 -245 -307 -257 -37 -5 -47
-1 -79 26 -59 53 -72 102 -72 281 1 176 13 237 73 360 90 183 299 306 385 226z"/>
<path d="M2322 3633 c-51 -25 -128 -116 -152 -180 -33 -90 -44 -151 -44 -263
-2 -219 64 -301 190 -239 125 60 197 223 197 444 0 129 -15 189 -55 232 -26
28 -87 31 -136 6z m93 -55 c31 -107 13 -310 -38 -422 -40 -87 -126 -166 -182
-166 -41 0 -66 162 -46 300 22 150 79 260 160 311 68 44 87 40 106 -23z m62
-27 c14 -34 18 -74 18 -156 -1 -117 -14 -188 -50 -271 -51 -115 -174 -203
-233 -165 -10 6 -7 10 11 15 85 21 179 152 211 293 20 91 21 244 1 309 -19 62
-19 61 5 39 10 -9 27 -38 37 -64z"/>
<path d="M1675 3432 c-16 -11 -35 -25 -42 -33 -16 -20 -344 -698 -354 -733
-14 -49 -2 -72 56 -102 l53 -28 125 72 c69 40 128 72 131 72 3 0 6 -17 6 -37
0 -46 5 -53 51 -81 49 -30 72 -28 103 9 24 28 26 38 26 125 l0 94 50 31 c56
34 70 54 70 97 0 23 -8 33 -39 50 -21 12 -48 22 -60 22 -20 0 -21 5 -23 202
l-3 202 -40 28 c-47 32 -69 34 -110 10z m75 -13 c12 -8 12 -12 2 -16 -7 -3
-24 -15 -37 -27 -28 -24 -375 -733 -375 -765 0 -25 -13 -27 -35 -5 -11 12 -14
25 -9 46 3 17 80 184 171 372 118 244 175 350 199 374 35 33 58 39 84 21z m58
-274 c1 -132 4 -246 7 -253 4 -10 16 -6 50 14 50 29 77 27 68 -6 -6 -22 -43
-55 -92 -82 l-31 -17 0 -96 c0 -103 -15 -145 -51 -145 -17 0 -19 9 -19 95 0
58 -4 95 -10 95 -6 0 -85 -43 -175 -96 -94 -55 -172 -94 -180 -90 -32 12 -13
69 106 313 67 136 146 299 176 361 41 86 62 118 86 133 62 38 62 39 65 -226z
m78 -187 c8 -12 -21 -38 -43 -38 -13 0 -18 32 -6 43 10 11 41 8 49 -5z m-166
-308 c0 -38 -4 -70 -9 -70 -39 0 -59 109 -23 129 29 18 32 13 32 -59z"/>
<path d="M1649 3113 c-39 -81 -102 -213 -141 -292 -38 -79 -66 -146 -64 -149
3 -2 70 33 150 79 l146 84 0 207 c0 128 -4 209 -10 213 -6 3 -41 -59 -81 -142z
m67 -250 c-2 -2 -13 2 -25 9 -19 12 -21 22 -21 125 0 96 3 119 23 159 l22 46
3 -167 c1 -92 1 -170 -2 -172z m-66 108 l0 -90 -54 -30 c-29 -17 -56 -31 -59
-31 -3 0 20 54 50 120 31 66 58 120 60 120 2 0 3 -40 3 -89z m40 -121 c8 -5
12 -11 10 -13 -16 -13 -215 -125 -218 -122 -2 2 4 17 12 33 9 18 42 46 83 70
72 43 89 47 113 32z"/>
<path d="M2570 2764 c-365 -211 -669 -389 -674 -394 -5 -5 -7 -12 -5 -15 5 -4
1331 756 1352 775 5 4 5 10 0 13 -4 3 -307 -168 -673 -379z"/>
<path d="M3138 2896 c-80 -47 -103 -66 -79 -66 15 0 191 104 191 113 0 15 -27
4 -112 -47z"/>
<path d="M2763 2482 c-255 -147 -463 -270 -463 -274 0 -5 4 -8 8 -8 10 0 923
527 936 540 37 37 -76 -23 -481 -258z"/>
<path d="M2470 2509 c-217 -125 -393 -232 -392 -236 2 -4 7 -7 11 -6 10 2 775
444 784 453 5 4 5 10 0 13 -4 3 -186 -98 -403 -224z"/>
<path d="M1664 2291 c-13 -21 -27 -30 -53 -34 -45 -5 -51 -2 -51 29 0 29 -3
30 -49 2 -44 -27 -51 -36 -51 -67 0 -14 -18 -43 -44 -71 -35 -38 -47 -45 -65
-39 -18 7 -25 1 -51 -43 -26 -47 -28 -54 -14 -69 14 -15 13 -23 -2 -75 -11
-40 -26 -67 -46 -84 -26 -22 -29 -31 -26 -70 2 -34 7 -44 18 -41 8 2 22 5 30
7 9 3 21 -9 31 -30 13 -29 14 -38 3 -58 -20 -35 -17 -54 11 -66 36 -17 38 -16
58 17 13 23 25 30 57 33 36 3 40 1 45 -24 4 -16 9 -28 11 -28 3 0 23 10 44 22
30 18 40 31 45 58 9 50 79 124 110 116 20 -5 27 1 49 40 30 53 32 70 11 81
-12 7 -12 14 0 48 8 22 14 48 15 57 0 9 14 26 30 38 27 19 30 27 30 71 0 50 0
51 -27 45 -24 -5 -31 -1 -45 24 -16 29 -16 33 0 66 16 35 16 36 -8 55 -34 26
-46 24 -66 -10z m53 -2 c9 -9 8 -19 -3 -41 -14 -27 -13 -33 7 -76 12 -26 23
-48 25 -50 1 -2 12 1 23 8 19 10 21 8 21 -21 0 -22 -9 -39 -30 -59 -16 -15
-30 -38 -30 -49 0 -12 -7 -38 -15 -58 -14 -33 -14 -38 1 -54 15 -17 15 -21 -3
-51 -13 -23 -27 -33 -44 -33 -33 0 -119 -92 -119 -128 0 -16 -10 -34 -27 -47
l-28 -22 -10 27 c-8 23 -14 26 -38 21 -16 -3 -40 -6 -52 -6 -15 0 -30 -11 -42
-30 -17 -27 -21 -29 -37 -17 -17 12 -17 16 -3 43 14 28 14 33 -6 77 -20 43
-24 47 -49 41 -25 -5 -28 -3 -28 19 0 15 11 35 28 49 19 16 35 46 49 90 19 61
19 68 4 83 -15 15 -14 19 6 53 16 28 27 36 43 34 16 -3 37 10 71 44 39 38 49
55 49 81 0 26 6 36 30 48 29 15 30 15 36 -11 5 -20 11 -24 28 -20 11 3 35 6
51 6 23 0 35 7 48 30 20 33 27 36 44 19z"/>
<path d="M1510 2072 c-93 -49 -141 -211 -76 -254 43 -29 122 18 160 94 35 71
35 129 0 157 -33 26 -40 26 -84 3z m74 -18 c57 -57 -35 -230 -118 -222 -27 3
-32 8 -40 40 -8 31 -5 45 20 95 18 35 42 67 63 81 40 26 54 27 75 6z"/>
<path d="M1995 2040 c-84 -50 -123 -80 -102 -80 10 0 217 122 222 131 14 21
-26 4 -120 -51z"/>
<path d="M4028 4577 c-134 -50 -249 -168 -323 -330 -42 -94 -56 -154 -56 -245
0 -107 31 -169 109 -215 118 -71 141 -80 203 -74 204 18 429 317 431 571 1
134 -25 177 -155 253 -88 51 -147 63 -209 40z m155 -28 l42 -22 -53 -13 c-84
-22 -132 -52 -212 -133 -152 -155 -231 -384 -185 -536 8 -27 12 -51 10 -54 -9
-8 -80 56 -100 90 -16 28 -20 51 -19 129 0 161 62 297 194 431 122 123 225
158 323 108z m79 -49 c44 -13 93 -66 107 -117 48 -173 -73 -458 -251 -588
-135 -100 -263 -93 -317 17 -31 64 -29 181 4 285 58 185 206 354 348 398 52
17 63 17 109 5z"/>
<path d="M4207 4330 c-15 -24 -23 -29 -43 -24 -28 7 -32 -3 -8 -21 15 -11 15
-14 0 -43 -18 -35 -19 -42 -8 -42 4 0 16 14 25 30 15 24 23 29 43 24 28 -7 32
3 8 21 -15 11 -15 14 0 43 18 35 19 42 8 42 -4 0 -16 -14 -25 -30z"/>
<path d="M3985 4202 c-15 -25 -24 -30 -42 -26 -27 7 -30 -4 -7 -21 15 -11 15
-14 -1 -38 -9 -15 -15 -32 -12 -39 2 -8 12 0 23 20 16 28 23 32 49 27 l30 -6
-21 19 c-20 17 -20 20 -7 46 21 40 10 56 -12 18z"/>
<path d="M4094 4106 c-40 -18 -98 -69 -123 -109 -24 -39 -43 -115 -30 -122 5
-3 11 7 14 22 13 60 41 106 88 148 61 56 112 69 139 35 10 -12 18 -31 18 -42
0 -10 5 -16 10 -13 18 11 11 45 -15 70 -27 28 -55 31 -101 11z"/>
</g>
</svg>
