<svg width="128" height="128" viewBox="0 0 128 128" fill="none" xmlns="http://www.w3.org/2000/svg">
<path d="M12.0154 45.1885V112.044H54.2674C54.2674 112.044 56.3802 117.009 59.0049 117.009C59.0893 117.009 59.1043 117.009 59.0847 117.009C59.6223 117.009 68.3821 117.009 68.9182 117.009C68.8986 117.009 68.9136 117.009 68.998 117.009C71.6227 117.009 73.7355 112.044 73.7355 112.044H115.988V45.1885" stroke="black" stroke-width="2.5" stroke-miterlimit="10" stroke-linecap="round" stroke-linejoin="round"/>
<path d="M40.606 35.2241C52.7525 35.2241 58.6525 34.8612 63.9999 41.341V109.895C58.6525 103.418 52.7525 103.779 40.606 103.779H20.5763V35.2241H40.606Z" stroke="black" stroke-width="2.5" stroke-miterlimit="10" stroke-linecap="round" stroke-linejoin="round"/>
<path d="M64.1144 109.853C71.6739 81.926 88.6407 79.4142 88.6407 79.4142V10.9915" stroke="black" stroke-width="2.5" stroke-miterlimit="10" stroke-linecap="round" stroke-linejoin="round"/>
<path d="M88.6407 10.9915C88.6407 10.9915 71.6724 13.4701 64.1144 41.3967" stroke="black" stroke-width="2.5" stroke-miterlimit="10" stroke-linecap="round" stroke-linejoin="round"/>
<path d="M98.0795 20.8745V90.1797C98.0795 90.1797 76.8526 91.2594 63.8026 109.833" stroke="black" stroke-width="2.5" stroke-miterlimit="10" stroke-linecap="round" stroke-linejoin="round"/>
<path d="M63.9999 109.895C69.3473 103.418 75.2473 103.779 87.3938 103.779H107.424V35.2166" stroke="black" stroke-width="2.5" stroke-miterlimit="10" stroke-linecap="round" stroke-linejoin="round"/>
</svg>
