<svg width="150" height="150" viewBox="0 0 150 150" fill="none" xmlns="http://www.w3.org/2000/svg">
<path d="M83.4376 125.894L83.4425 125.894C85.0994 125.861 86.6774 125.18 87.8377 123.997C88.998 122.814 89.6479 121.222 89.6479 119.565C89.6479 117.908 88.998 116.317 87.8377 115.134C86.6774 113.95 85.0994 113.269 83.4425 113.237V113.237H83.4376H23.6744C22.8337 113.221 21.9982 113.372 21.2167 113.682C20.4344 113.993 19.722 114.457 19.121 115.046C18.52 115.635 18.0426 116.338 17.7167 117.114C17.3908 117.89 17.2229 118.724 17.2229 119.565C17.2229 120.407 17.3908 121.24 17.7167 122.016C18.0426 122.792 18.52 123.495 19.121 124.085C19.722 124.674 20.4344 125.138 21.2167 125.448C21.9982 125.758 22.8337 125.91 23.6744 125.894L83.4376 125.894ZM23.6657 116.08L23.6657 116.081H23.672H83.4344C84.3424 116.104 85.2054 116.481 85.8396 117.131C86.4746 117.782 86.8299 118.656 86.8299 119.565C86.8299 120.475 86.4746 121.348 85.8396 121.999C85.2054 122.649 84.3424 123.027 83.4344 123.05H23.672V123.05L23.6657 123.05C23.2007 123.062 22.7381 122.98 22.3051 122.81C21.8721 122.64 21.4775 122.386 21.1445 122.061C20.8115 121.736 20.5469 121.348 20.3662 120.919C20.1855 120.491 20.0924 120.03 20.0924 119.565C20.0924 119.1 20.1855 118.64 20.3662 118.211C20.5469 117.783 20.8115 117.394 21.1445 117.07C21.4775 116.745 21.8721 116.49 22.3051 116.32C22.7381 116.15 23.2007 116.069 23.6657 116.08Z" fill="black" stroke="black" stroke-width="0.5"/>
<path d="M23.672 47.8977H83.4376C85.0832 47.8977 86.6614 47.244 87.825 46.0803C88.9886 44.9167 89.6423 43.3386 89.6423 41.693C89.6423 40.0474 88.9886 38.4692 87.825 37.3056C86.6614 36.142 85.0832 35.4883 83.4376 35.4883H23.672C22.0264 35.4883 20.4482 36.142 19.2846 37.3056C18.121 38.4692 17.4673 40.0474 17.4673 41.693C17.4673 43.3386 18.121 44.9167 19.2846 46.0803C20.4482 47.244 22.0264 47.8977 23.672 47.8977ZM21.1046 39.1514C21.7818 38.4742 22.7002 38.0938 23.6579 38.0938H83.4376C84.3953 38.0938 85.3137 38.4742 85.9909 39.1514C86.6681 39.8286 87.0485 40.747 87.0485 41.7047C87.0485 42.6624 86.6681 43.5808 85.9909 44.258C85.3137 44.9352 84.3953 45.3156 83.4376 45.3156H23.6579C22.7002 45.3156 21.7818 44.9352 21.1046 44.258C20.4274 43.5808 20.047 42.6624 20.047 41.7047C20.047 40.747 20.4274 39.8286 21.1046 39.1514Z" fill="black" stroke="black" stroke-width="0.25"/>
<path d="M82.3633 114.763C82.6691 114.997 83.0783 115.125 83.5 115.125C83.9217 115.125 84.3309 114.997 84.6367 114.763C84.9432 114.528 85.125 114.202 85.125 113.851V47.1485C85.125 46.7984 84.9432 46.4718 84.6367 46.2372C84.3309 46.003 83.9217 45.875 83.5 45.875C83.0783 45.875 82.6691 46.003 82.3633 46.2372C82.0568 46.4718 81.875 46.7984 81.875 47.1485V113.851C81.875 114.202 82.0568 114.528 82.3633 114.763Z" fill="black" stroke="black" stroke-width="0.25"/>
<path d="M22.3633 114.763C22.6691 114.997 23.0783 115.125 23.5 115.125C23.9217 115.125 24.3309 114.997 24.6367 114.763C24.9432 114.528 25.125 114.202 25.125 113.851V47.1485C25.125 46.7984 24.9432 46.4718 24.6367 46.2372C24.3309 46.003 23.9217 45.875 23.5 45.875C23.0783 45.875 22.6691 46.003 22.3633 46.2372C22.0569 46.4718 21.875 46.7984 21.875 47.1485V113.851C21.875 114.202 22.0569 114.528 22.3633 114.763Z" fill="black" stroke="black" stroke-width="0.25"/>
<path d="M56.1351 106.49H56.1353C58.417 106.487 60.6045 105.58 62.2181 103.967C63.8317 102.354 64.7397 100.166 64.7429 97.8846V97.8843V63.3726V63.3722C64.7397 61.0905 63.8317 58.9033 62.2181 57.2901C60.6045 55.677 58.417 54.7696 56.1353 54.7671H56.1351H23.6577C23.2806 54.7671 22.919 54.9169 22.6523 55.1835C22.3856 55.4502 22.2358 55.8119 22.2358 56.189C22.2358 56.5661 22.3856 56.9277 22.6523 57.1944C22.919 57.461 23.2806 57.6108 23.6577 57.6108H56.1349C57.6629 57.612 59.128 58.2194 60.2087 59.2997C61.2894 60.3799 61.8973 61.8448 61.8991 63.3728V97.884C61.8973 99.412 61.2894 100.877 60.2087 101.957C59.128 103.037 57.6629 103.645 56.1349 103.646H23.6577C23.2806 103.646 22.919 103.796 22.6523 104.062C22.3856 104.329 22.2358 104.691 22.2358 105.068C22.2358 105.445 22.3856 105.807 22.6523 106.073C22.919 106.34 23.2806 106.49 23.6577 106.49H56.1351Z" fill="black" stroke="black" stroke-width="0.5"/>
<path d="M36.75 28.5482V28.5478C36.7519 27.2731 37.2749 26.0527 38.2017 25.1539C39.1281 24.2553 40.3825 23.7512 41.6893 23.75L41.6896 23.75L65.3011 23.75H65.3012V24C66.5458 23.9988 67.7399 24.4773 68.621 25.3302C69.5022 26.183 69.9982 27.3406 70 28.5482V35.8809C70 36.1777 69.8785 36.4623 69.6622 36.6722C69.4459 36.8821 69.1525 37 68.8466 37C68.5407 37 68.2474 36.8821 68.0311 36.6722C67.8148 36.4623 67.6933 36.1777 67.6933 35.8809L36.75 28.5482ZM36.75 28.5482V35.8809C36.75 36.2464 36.8997 36.5955 37.1637 36.8516C37.4274 37.1075 37.7836 37.25 38.1534 37.25C38.5232 37.25 38.8793 37.1075 39.143 36.8516C39.407 36.5955 39.5567 36.2464 39.5567 35.8809L39.5567 28.5485C39.5567 28.5484 39.5567 28.5483 39.5567 28.5482C39.5573 28.0042 39.7804 27.4811 40.1795 27.0942C40.5789 26.7071 41.1219 26.4883 41.6896 26.4883H65.3104C65.8781 26.4883 66.4211 26.7071 66.8205 27.0942C67.2197 27.4811 67.4427 28.0044 67.4433 28.5485L36.75 28.5482Z" fill="black" stroke="black" stroke-width="0.5"/>
<path d="M108.799 106.24H83.4375C83.1267 106.24 82.8286 106.116 82.6089 105.897C82.3891 105.677 82.2656 105.379 82.2656 105.068C82.2656 104.757 82.3891 104.459 82.6089 104.239C82.8286 104.02 83.1267 103.896 83.4375 103.896H108.799C109.439 103.896 110.053 103.641 110.506 103.19C110.96 102.738 111.215 102.125 111.218 101.484V91.854C111.219 90.5906 111.722 89.3794 112.615 88.4861C113.508 87.5928 114.719 87.0904 115.983 87.0891H127.659C128.301 87.0885 128.916 86.8335 129.369 86.38C129.822 85.9265 130.078 85.3117 130.078 84.6704V58.9454C130.078 58.3041 129.822 57.6892 129.369 57.2357C128.916 56.7823 128.301 56.5272 127.659 56.5266H83.4375C83.1267 56.5266 82.8286 56.4031 82.6089 56.1834C82.3891 55.9636 82.2656 55.6655 82.2656 55.3547C82.2656 55.0439 82.3891 54.7459 82.6089 54.5261C82.8286 54.3063 83.1267 54.1829 83.4375 54.1829H127.659C128.922 54.1847 130.132 54.6871 131.025 55.5798C131.918 56.4726 132.42 57.6828 132.422 58.9454V84.6704C132.42 85.9329 131.918 87.1432 131.025 88.0359C130.132 88.9286 128.922 89.431 127.659 89.4329H115.983C115.341 89.4341 114.726 89.6896 114.272 90.1434C113.818 90.5971 113.563 91.2122 113.562 91.854V101.484C113.558 102.746 113.055 103.954 112.162 104.845C111.27 105.737 110.061 106.238 108.799 106.24Z" fill="black"/>
<path d="M94.9992 100.596H89.032C88.7212 100.596 88.4231 100.473 88.2033 100.253C87.9836 100.033 87.8601 99.7351 87.8601 99.4243C87.8601 99.1135 87.9836 98.8154 88.2033 98.5957C88.4231 98.3759 88.7212 98.2524 89.032 98.2524H94.9992C95.31 98.2524 95.608 98.3759 95.8278 98.5957C96.0476 98.8154 96.171 99.1135 96.171 99.4243C96.171 99.7351 96.0476 100.033 95.8278 100.253C95.608 100.473 95.31 100.596 94.9992 100.596Z" fill="black"/>
<path d="M106.788 100.596H100.821C100.51 100.596 100.212 100.473 99.9924 100.253C99.7726 100.033 99.6492 99.7351 99.6492 99.4243C99.6492 99.1135 99.7726 98.8154 99.9924 98.5957C100.212 98.3759 100.51 98.2524 100.821 98.2524H106.788C107.099 98.2524 107.397 98.3759 107.617 98.5957C107.837 98.8154 107.96 99.1135 107.96 99.4243C107.96 99.7351 107.837 100.033 107.617 100.253C107.397 100.473 107.099 100.596 106.788 100.596Z" fill="black"/>
<path d="M96.1829 61.7227H88.6243C88.3135 61.7227 88.0154 61.5992 87.7956 61.3794C87.5759 61.1597 87.4524 60.8616 87.4524 60.5508C87.4524 60.24 87.5759 59.9419 87.7956 59.7221C88.0154 59.5024 88.3135 59.3789 88.6243 59.3789H96.1829C96.4937 59.3789 96.7917 59.5024 97.0115 59.7221C97.2313 59.9419 97.3547 60.24 97.3547 60.5508C97.3547 60.8616 97.2313 61.1597 97.0115 61.3794C96.7917 61.5992 96.4937 61.7227 96.1829 61.7227Z" fill="black"/>
<path d="M111.12 61.7227H103.561C103.25 61.7227 102.952 61.5992 102.732 61.3794C102.513 61.1597 102.389 60.8616 102.389 60.5508C102.389 60.24 102.513 59.9419 102.732 59.7221C102.952 59.5024 103.25 59.3789 103.561 59.3789H111.12C111.43 59.3789 111.728 59.5024 111.948 59.7221C112.168 59.9419 112.291 60.24 112.291 60.5508C112.291 60.8616 112.168 61.1597 111.948 61.3794C111.728 61.5992 111.43 61.7227 111.12 61.7227Z" fill="black"/>
<path d="M126.054 61.7227H118.495C118.185 61.7227 117.886 61.5992 117.667 61.3794C117.447 61.1597 117.323 60.8616 117.323 60.5508C117.323 60.24 117.447 59.9419 117.667 59.7221C117.886 59.5024 118.185 59.3789 118.495 59.3789H126.054C126.365 59.3789 126.663 59.5024 126.883 59.7221C127.102 59.9419 127.226 60.24 127.226 60.5508C127.226 60.8616 127.102 61.1597 126.883 61.3794C126.663 61.5992 126.365 61.7227 126.054 61.7227Z" fill="black"/>
</svg>
