<svg width="157" height="119" xmlns="http://www.w3.org/2000/svg" fill="none">
 <defs>
  <clipPath id="clip0_48_230">
   <rect width="168.293" height="169.186" fill="white" id="svg_1"/>
  </clipPath>
  <clipPath id="clip1_48_230">
   <rect width="168.293" height="169.186" fill="white" y="-13.186" x="-0.2927" id="svg_2"/>
  </clipPath>
 </defs>
 <g>
  <title>Layer 1</title>
  <g clip-path="url(#clip0_48_230)" id="svg_3">
   <g clip-path="url(#clip1_48_230)" id="svg_4">
    <path d="m143.393,48.6252l-34.115,-20.6251c-0.679,-0.4081 -1.443,-0.6509 -2.231,-0.7093c-0.789,-0.0583 -1.581,0.0696 -2.311,0.3734l-78.7583,33.3636c-0.3834,0.1602 -0.7151,0.4241 -0.9583,0.7625c-0.2431,0.3387 -0.3881,0.7377 -0.4189,1.1547c-0.0308,0.416 0.0539,0.833 0.2447,1.203c0.1907,0.371 0.48,0.681 0.8357,0.897l7.4014,4.475l-14.2033,5.823c-0.018,0.008 -0.0328,0.019 -0.0506,0.027c-0.0673,0.031 -0.1301,0.071 -0.196,0.105c-0.0254,0.016 -0.0519,0.03 -0.0764,0.047c-0.8571,0.471 -1.5655,1.175 -2.0447,2.031c-2.2614,3.934 -0.6859,10.704 5.8289,14.797l33.8426,20.461c1.5664,1.066 3.4063,1.654 5.2975,1.692c1.1921,-0.001 2.3696,-0.265 3.4491,-0.773l78.2416,-32.768c5.196,-2.172 8.447,-7.109 8.919,-13.545c0.56,-7.6296 -3.016,-15.3574 -8.697,-18.7918zm-83.0577,37.3708c3.5668,1.918 6.2596,5.147 7.5171,9.012c-0.0965,0.029 -0.1904,0.066 -0.2805,0.111l-6.0564,3.045c-0.0847,0.042 -0.1787,0.063 -0.2733,0.059c-0.0945,-0.004 -0.1867,-0.031 -0.2679,-0.08l-35.884,-21.693l11.5931,-4.753l23.6519,14.299zm3.471,24.516c-0.08,0.043 -0.1588,0.084 -0.2388,0.123l-0.4996,0.209c-0.8616,0.268 -1.7742,0.326 -2.6624,0.168c-0.8881,-0.157 -1.7261,-0.525 -2.4444,-1.073l-33.8613,-20.474c-4.9907,-3.134 -5.9307,-8.031 -4.674,-10.218c0.136,-0.28 0.3475,-0.517 0.6106,-0.682c0.263,-0.166 0.567,-0.254 0.8773,-0.254c0.5025,0.022 0.992,0.167 1.4265,0.422l36.8995,22.31c0.5662,0.344 1.21,0.538 1.8711,0.564c0.6611,0.025 1.3178,-0.118 1.9089,-0.417l5.5425,-2.786c0.0619,0.599 0.0904,1.2 0.0855,1.801c-0.0467,4.621 -1.9926,8.763 -4.8414,10.307zm84.9267,-43.344c-0.375,5.117 -2.874,9.006 -6.855,10.67l-71.4654,29.931c1.049,-2.37 1.5946,-4.934 1.6019,-7.528c0.0653,-3.507 -0.8318,-6.965 -2.5928,-9.993c-1.7611,-3.029 -4.3179,-5.511 -7.3901,-7.174l-32.7241,-19.785l76.7255,-32.5032c0.243,-0.1011 0.506,-0.1435 0.769,-0.1238c0.262,0.0197 0.516,0.1009 0.742,0.2372l34.113,20.6251c4.637,2.8032 7.547,9.2357 7.076,15.6437z" fill="black" id="svg_5"/>
    <path d="m137.771,54.527l-17.999,-10.8815c-0.38,-0.2282 -0.808,-0.3634 -1.249,-0.3946c-0.442,-0.0312 -0.884,0.0425 -1.292,0.2151l-16.126,6.8842c-0.334,0.1413 -0.623,0.3728 -0.834,0.6689c-0.212,0.296 -0.337,0.6451 -0.364,1.0086c-0.026,0.3635 0.049,0.7271 0.216,1.0506c0.167,0.3235 0.419,0.5943 0.73,0.7823l18.017,10.8924c2.723,1.647 4.572,5.854 4.395,10.006c-0.015,0.332 0.054,0.663 0.2,0.961c0.146,0.299 0.366,0.555 0.637,0.745c0.272,0.19 0.588,0.307 0.917,0.341c0.329,0.034 0.661,-0.017 0.966,-0.147l16.102,-6.873c0.496,-0.209 0.922,-0.557 1.227,-1.003c0.304,-0.446 0.475,-0.97 0.491,-1.511c0.125,-5.2804 -2.357,-10.5211 -6.034,-12.745zm-11.193,18.203c-0.411,-4.617 -2.707,-8.901 -5.973,-10.876l-15.66,-9.4672l13.337,-5.6935l17.754,10.7328c2.564,1.5508 4.383,5.4529 4.406,9.3859l-13.864,5.918z" fill="black" id="svg_6"/>
    <path d="m73.8338,53.2823c-0.0863,-0.2045 -0.2118,-0.39 -0.3695,-0.5457c-0.1576,-0.1558 -0.3442,-0.2788 -0.5491,-0.3621c-0.2049,-0.0832 -0.4241,-0.1251 -0.6451,-0.1232c-0.221,0.0019 -0.4395,0.0475 -0.6429,0.1343l-29.1071,12.4084c-0.2035,0.087 -0.3879,0.213 -0.5429,0.371c-0.1549,0.159 -0.2773,0.346 -0.3601,0.552c-0.0828,0.206 -0.1244,0.427 -0.1225,0.649c0.0019,0.222 0.0473,0.442 0.1336,0.646c0.0863,0.205 0.2119,0.39 0.3695,0.546c0.1576,0.156 0.3442,0.279 0.5491,0.362c0.2049,0.083 0.4242,0.125 0.6452,0.123c0.221,-0.002 0.4394,-0.048 0.6429,-0.134l29.1071,-12.4083c0.2034,-0.0868 0.3879,-0.213 0.5428,-0.3715c0.155,-0.1584 0.2773,-0.346 0.3601,-0.552c0.0829,-0.206 0.1245,-0.4264 0.1226,-0.6486c-0.0019,-0.2221 -0.0473,-0.4417 -0.1337,-0.6463z" fill="black" id="svg_7"/>
    <path d="m79.1302,52.7176c0.2255,0 0.4488,-0.0457 0.6563,-0.1344l28.3505,-12.0868c0.203,-0.0868 0.388,-0.213 0.542,-0.3714c0.155,-0.1585 0.278,-0.3461 0.361,-0.5521c0.082,-0.206 0.124,-0.4263 0.122,-0.6485c-0.002,-0.2222 -0.047,-0.4418 -0.133,-0.6463c-0.087,-0.2046 -0.212,-0.39 -0.37,-0.5457c-0.158,-0.1558 -0.344,-0.2788 -0.549,-0.3621c-0.205,-0.0832 -0.424,-0.1251 -0.645,-0.1232c-0.221,0.0019 -0.44,0.0476 -0.643,0.1344l-28.3503,12.0864c-0.3576,0.1523 -0.6518,0.4243 -0.8327,0.7697c-0.181,0.3455 -0.2375,0.7433 -0.1599,1.1259c0.0775,0.3826 0.2842,0.7264 0.5852,0.9732c0.3009,0.2468 0.6775,0.3814 1.0659,0.3809z" fill="black" id="svg_8"/>
    <path d="m70.7244,65.271c-0.0873,-0.204 -0.2138,-0.389 -0.3722,-0.544c-0.1584,-0.155 -0.3456,-0.277 -0.5509,-0.359c-0.2053,-0.082 -0.4247,-0.123 -0.6458,-0.12c-0.221,0.003 -0.4392,0.05 -0.6422,0.138l-15.3114,6.615c-0.2077,0.084 -0.3965,0.21 -0.5554,0.368c-0.1589,0.159 -0.2847,0.348 -0.37,0.557c-0.0852,0.208 -0.1283,0.431 -0.1265,0.656c0.0017,0.226 0.0481,0.448 0.1365,0.655c0.0884,0.207 0.217,0.394 0.3783,0.55c0.1613,0.157 0.352,0.279 0.5609,0.36c0.209,0.082 0.432,0.12 0.6559,0.114c0.2239,-0.007 0.4443,-0.058 0.6482,-0.152l15.3137,-6.616c0.4098,-0.177 0.7328,-0.511 0.898,-0.927c0.1652,-0.417 0.1591,-0.883 -0.0171,-1.295z" fill="black" id="svg_9"/>
    <path d="m94.037,53.3606l-15.3142,6.6154c-0.4101,0.1773 -0.7332,0.5111 -0.8984,0.9279c-0.1652,0.4169 -0.159,0.8826 0.0174,1.2951c0.1764,0.412 0.5084,0.737 0.9231,0.903c0.4146,0.166 0.8779,0.16 1.2879,-0.018l15.3122,-6.615c0.401,-0.1829 0.715,-0.5167 0.874,-0.9296c0.159,-0.4129 0.151,-0.8721 -0.023,-1.279c-0.174,-0.4068 -0.499,-0.729 -0.907,-0.8972c-0.407,-0.1682 -0.864,-0.1692 -1.272,-0.0026z" fill="black" id="svg_10"/>
    <path d="m80.6752,71.795c-0.1762,-0.412 -0.508,-0.737 -0.9225,-0.904c-0.4145,-0.166 -0.8777,-0.16 -1.2878,0.017l-14.5751,6.296c-0.2085,0.084 -0.3981,0.209 -0.5578,0.368c-0.1597,0.159 -0.2861,0.348 -0.3719,0.557c-0.0858,0.208 -0.1292,0.432 -0.1277,0.658c0.0016,0.225 0.048,0.449 0.1367,0.656c0.0886,0.207 0.2176,0.395 0.3795,0.551c0.1618,0.157 0.3531,0.279 0.5627,0.36c0.2095,0.081 0.4331,0.119 0.6576,0.112c0.2244,-0.007 0.4451,-0.059 0.6491,-0.154l14.5756,-6.296c0.2031,-0.087 0.3869,-0.214 0.5411,-0.373c0.1542,-0.159 0.2757,-0.347 0.3576,-0.554c0.0819,-0.206 0.1225,-0.427 0.1195,-0.649c-0.0029,-0.222 -0.0493,-0.441 -0.1366,-0.645z" fill="black" id="svg_11"/>
    <path d="m87.301,68.933c0.087,0.204 0.213,0.389 0.372,0.544c0.158,0.155 0.345,0.277 0.551,0.359c0.205,0.082 0.424,0.123 0.645,0.12c0.221,-0.003 0.44,-0.05 0.643,-0.137l14.574,-6.297c0.399,-0.185 0.711,-0.518 0.868,-0.93c0.158,-0.412 0.15,-0.8699 -0.024,-1.2755c-0.173,-0.4057 -0.497,-0.7272 -0.903,-0.896c-0.405,-0.1687 -0.861,-0.1714 -1.268,-0.0074l-14.577,6.2969c-0.203,0.088 -0.387,0.215 -0.541,0.374c-0.154,0.16 -0.276,0.348 -0.358,0.554c-0.082,0.207 -0.122,0.427 -0.119,0.649c0.003,0.222 0.049,0.442 0.137,0.646z" fill="black" id="svg_12"/>
    <path d="m90.343,78.417c-0.087,-0.205 -0.213,-0.39 -0.371,-0.545c-0.159,-0.155 -0.346,-0.277 -0.551,-0.36c-0.205,-0.082 -0.425,-0.123 -0.646,-0.12c-0.221,0.003 -0.439,0.05 -0.642,0.138l-14.974,6.468c-0.208,0.084 -0.3972,0.209 -0.5564,0.368c-0.1592,0.159 -0.2852,0.348 -0.3707,0.556c-0.0854,0.209 -0.1286,0.432 -0.127,0.658c0.0016,0.225 0.0481,0.448 0.1365,0.655c0.0885,0.207 0.2173,0.394 0.3788,0.551c0.1615,0.156 0.3524,0.278 0.5616,0.36c0.2092,0.081 0.4324,0.119 0.6565,0.112c0.2241,-0.006 0.4447,-0.058 0.6486,-0.152l14.9741,-6.468c0.203,-0.087 0.387,-0.214 0.542,-0.373c0.154,-0.159 0.275,-0.347 0.357,-0.554c0.082,-0.206 0.123,-0.427 0.12,-0.649c-0.003,-0.222 -0.049,-0.441 -0.137,-0.645z" fill="black" id="svg_13"/>
    <path d="m115.299,67.634c-0.177,-0.412 -0.509,-0.736 -0.923,-0.902c-0.415,-0.167 -0.878,-0.16 -1.288,0.017l-14.973,6.469c-0.41,0.177 -0.734,0.511 -0.899,0.928c-0.165,0.417 -0.159,0.882 0.018,1.295c0.176,0.412 0.508,0.737 0.923,0.903c0.415,0.166 0.878,0.159 1.288,-0.018l14.973,-6.469c0.203,-0.088 0.387,-0.215 0.541,-0.374c0.154,-0.159 0.276,-0.347 0.357,-0.554c0.082,-0.206 0.123,-0.427 0.12,-0.649c-0.003,-0.222 -0.05,-0.441 -0.137,-0.646z" fill="black" id="svg_14"/>
    <path d="m91.615,87.127l-15.3115,6.616c-0.2077,0.084 -0.3966,0.209 -0.5555,0.368c-0.1589,0.159 -0.2846,0.348 -0.3699,0.556c-0.0852,0.208 -0.1283,0.432 -0.1266,0.657c0.0017,0.225 0.0481,0.448 0.1366,0.655c0.0884,0.207 0.217,0.394 0.3783,0.55c0.1612,0.156 0.352,0.279 0.5609,0.36c0.2089,0.081 0.4319,0.12 0.6559,0.113c0.2239,-0.006 0.4443,-0.058 0.6482,-0.151l15.3136,-6.615c0.203,-0.088 0.387,-0.215 0.541,-0.375c0.155,-0.159 0.276,-0.347 0.358,-0.553c0.082,-0.207 0.122,-0.427 0.119,-0.65c-0.003,-0.222 -0.049,-0.441 -0.137,-0.645c-0.087,-0.204 -0.213,-0.389 -0.372,-0.544c-0.158,-0.155 -0.345,-0.277 -0.551,-0.359c-0.205,-0.083 -0.424,-0.123 -0.645,-0.12c-0.221,0.003 -0.44,0.049 -0.643,0.137z" fill="black" id="svg_15"/>
    <path d="m117.139,76.103l-15.313,6.614c-0.208,0.084 -0.397,0.209 -0.556,0.368c-0.159,0.159 -0.285,0.348 -0.37,0.556c-0.086,0.209 -0.129,0.432 -0.127,0.657c0.001,0.226 0.048,0.448 0.136,0.655c0.089,0.207 0.217,0.394 0.379,0.551c0.161,0.156 0.352,0.279 0.561,0.36c0.209,0.081 0.432,0.119 0.656,0.113c0.224,-0.007 0.445,-0.058 0.649,-0.152l15.312,-6.614c0.4,-0.184 0.713,-0.518 0.871,-0.93c0.159,-0.412 0.15,-0.871 -0.023,-1.277c-0.174,-0.406 -0.499,-0.728 -0.905,-0.896c-0.407,-0.169 -0.863,-0.171 -1.27,-0.005z" fill="black" id="svg_16"/>
   </g>
   <path d="m133.78,53.7943l-85.2678,32.8397l-43.7561,-24.8142l0,-8.0255l94.2439,-40.4745l39.268,24.814l-4.488,15.6605z" fill="white" id="svg_17"/>
   <path d="m130.928,23.9529l-34.115,-20.6252c-0.679,-0.408 -1.443,-0.6509 -2.232,-0.7092c-0.788,-0.0583 -1.58,0.0695 -2.31,0.3733l-78.7584,33.3636c-0.3834,0.1602 -0.7151,0.4242 -0.9583,0.7626c-0.2431,0.3383 -0.3881,0.7379 -0.4189,1.1542c-0.0307,0.4163 0.054,0.833 0.2447,1.2038c0.1907,0.3707 0.48,0.6811 0.8357,0.8965l7.4014,4.4747l-14.2033,5.8237c-0.018,0.0075 -0.0328,0.0191 -0.0506,0.0271c-0.0673,0.0308 -0.1301,0.0702 -0.196,0.1044c-0.0254,0.0157 -0.0519,0.03 -0.0764,0.047c-0.8571,0.4715 -1.5655,1.1752 -2.0447,2.0311c-2.2614,3.9345 -0.6859,10.7035 5.829,14.7975l33.8425,20.461c1.5664,1.066 3.4063,1.653 5.2975,1.692c1.1922,-0.001 2.3696,-0.265 3.4491,-0.774l78.2417,-32.7672c5.196,-2.1721 8.446,-7.1089 8.919,-13.5448c0.56,-7.6299 -3.016,-15.3578 -8.697,-18.7921zm-83.0577,37.3707c3.5667,1.9184 6.2595,5.1464 7.517,9.0124c-0.0965,0.028 -0.1904,0.066 -0.2805,0.111l-6.0564,3.045c-0.0847,0.042 -0.1787,0.062 -0.2732,0.059c-0.0946,-0.004 -0.1867,-0.032 -0.268,-0.08l-35.884,-21.6929l11.5931,-4.7539l23.652,14.2994zm3.4709,24.5164c-0.08,0.043 -0.1588,0.084 -0.2388,0.122l-0.4996,0.21c-0.8615,0.268 -1.7742,0.325 -2.6623,0.168c-0.8882,-0.158 -1.7262,-0.526 -2.4445,-1.074l-33.8613,-20.473c-4.9906,-3.1347 -5.9307,-8.0318 -4.674,-10.2181c0.136,-0.2804 0.3476,-0.5168 0.6106,-0.6823c0.263,-0.1655 0.567,-0.2535 0.8773,-0.2539c0.5025,0.0224 0.992,0.1672 1.4266,0.4218l36.8994,22.3105c0.5662,0.343 1.21,0.537 1.8711,0.563c0.6611,0.026 1.3179,-0.117 1.9089,-0.416l5.5425,-2.786c0.0619,0.598 0.0904,1.2 0.0855,1.801c-0.0467,4.62 -1.9926,8.763 -4.8414,10.307zm84.9268,-43.3439c-0.375,5.1163 -2.874,9.0057 -6.855,10.67l-71.4655,29.9299c1.049,-2.369 1.5946,-4.933 1.6019,-7.527c0.0653,-3.507 -0.8318,-6.965 -2.5928,-9.993c-1.761,-3.029 -4.3179,-5.5111 -7.3901,-7.1746l-32.7241,-19.7847l76.7256,-32.5033c0.243,-0.101 0.506,-0.1434 0.769,-0.1238c0.262,0.0197 0.516,0.1009 0.742,0.2372l34.113,20.6251c4.637,2.8032 7.547,9.2358 7.076,15.6442z" fill="black" id="svg_18"/>
   <path d="m122.064,29.713l-17.999,-10.8815c-0.38,-0.2282 -0.808,-0.3634 -1.249,-0.3946c-0.442,-0.0312 -0.885,0.0425 -1.293,0.2151l-16.126,6.8843c-0.334,0.1412 -0.622,0.3727 -0.834,0.6688c-0.211,0.2961 -0.337,0.6452 -0.363,1.0086c-0.026,0.3635 0.049,0.7272 0.215,1.0507c0.167,0.3235 0.42,0.5942 0.73,0.7823l18.017,10.8924c2.724,1.6467 4.573,5.8538 4.396,10.0058c-0.015,0.3323 0.053,0.6632 0.2,0.9616c0.146,0.2984 0.365,0.5546 0.637,0.7444c0.272,0.1899 0.587,0.3073 0.917,0.3412c0.329,0.0339 0.661,-0.0168 0.966,-0.1473l16.101,-6.8731c0.497,-0.2087 0.923,-0.5568 1.227,-1.0026c0.305,-0.4457 0.475,-0.9703 0.491,-1.5109c0.125,-5.2806 -2.356,-10.5213 -6.033,-12.7452zm-11.194,18.203c-0.411,-4.6174 -2.706,-8.9011 -5.972,-10.876l-15.66,-9.4672l13.337,-5.6934l17.753,10.7327c2.565,1.5509 4.384,5.4534 4.407,9.3856l-13.865,5.9183z" fill="black" id="svg_19"/>
   <path d="m79.1685,19.4264c-0.0863,-0.2046 -0.2118,-0.39 -0.3694,-0.5458c-0.1576,-0.1557 -0.3442,-0.2788 -0.5491,-0.362c-0.205,-0.0833 -0.4242,-0.1252 -0.6452,-0.1233c-0.221,0.0019 -0.4395,0.0476 -0.6429,0.1344l-29.1071,12.4081c-0.2035,0.0868 -0.3879,0.213 -0.5429,0.3715c-0.1549,0.1584 -0.2772,0.346 -0.3601,0.552c-0.0828,0.206 -0.1244,0.4264 -0.1225,0.6485c0.0019,0.2222 0.0473,0.4418 0.1336,0.6464c0.0864,0.2045 0.2119,0.3899 0.3695,0.5457c0.1577,0.1557 0.3442,0.2787 0.5492,0.362c0.2049,0.0832 0.4241,0.1251 0.6451,0.1232c0.221,-0.0019 0.4394,-0.0476 0.6429,-0.1344l29.1071,-12.408c0.2035,-0.0868 0.3879,-0.213 0.5428,-0.3714c0.155,-0.1585 0.2773,-0.3461 0.3602,-0.5521c0.0828,-0.206 0.1244,-0.4263 0.1225,-0.6485c-0.0019,-0.2222 -0.0473,-0.4418 -0.1337,-0.6463z" fill="black" id="svg_20"/>
   <path d="m55.0171,40.4572c-0.0873,-0.2041 -0.2138,-0.3889 -0.3721,-0.5439c-0.1584,-0.155 -0.3456,-0.2771 -0.551,-0.3593c-0.2053,-0.0823 -0.4247,-0.123 -0.6457,-0.12c-0.221,0.003 -0.4393,0.0498 -0.6423,0.1376l-15.3114,6.6154c-0.2077,0.0844 -0.3965,0.2097 -0.5554,0.3685c-0.1589,0.1587 -0.2847,0.3478 -0.3699,0.5561c-0.0853,0.2082 -0.1283,0.4315 -0.1266,0.6567c0.0017,0.2253 0.0481,0.4479 0.1365,0.6548c0.0884,0.2069 0.217,0.394 0.3783,0.5504c0.1613,0.1563 0.352,0.2786 0.561,0.3599c0.2089,0.0812 0.4319,0.1197 0.6558,0.1132c0.224,-0.0065 0.4443,-0.0579 0.6483,-0.1512l15.3136,-6.6162c0.4098,-0.1773 0.7328,-0.511 0.898,-0.9276c0.1652,-0.4167 0.1591,-0.8823 -0.0171,-1.2944z" fill="black" id="svg_21"/>
   <path d="m78.3294,28.5466l-15.3139,6.6154c-0.41,0.1773 -0.7332,0.5111 -0.8984,0.928c-0.1652,0.4168 -0.1589,0.8826 0.0174,1.2948c0.1764,0.4122 0.5084,0.7371 0.9231,0.9031c0.4146,0.1661 0.8779,0.1598 1.288,-0.0175l15.312,-6.6154c0.4012,-0.1829 0.715,-0.5166 0.8741,-0.9296c0.1592,-0.4129 0.1509,-0.872 -0.0229,-1.2789c-0.1739,-0.4069 -0.4995,-0.729 -0.9069,-0.8973c-0.4075,-0.1682 -0.8643,-0.1692 -1.2725,-0.0026z" fill="black" id="svg_22"/>
   <path d="m64.9679,46.9808c-0.1762,-0.4122 -0.508,-0.7372 -0.9225,-0.9035c-0.4145,-0.1663 -0.8777,-0.1603 -1.2878,0.0167l-14.5751,6.2965c-0.2085,0.0839 -0.3981,0.2089 -0.5578,0.3676c-0.1596,0.1587 -0.2861,0.3479 -0.3719,0.5565c-0.0858,0.2086 -0.1292,0.4324 -0.1276,0.6581c0.0015,0.2257 0.048,0.4489 0.1366,0.6563c0.0886,0.2074 0.2177,0.3948 0.3795,0.5513c0.1618,0.1565 0.3531,0.2789 0.5627,0.3599c0.2096,0.081 0.4332,0.1191 0.6576,0.1119c0.2244,-0.0072 0.4451,-0.0594 0.6492,-0.1537l14.5756,-6.296c0.203,-0.0876 0.3869,-0.2146 0.5411,-0.3737c0.1542,-0.1591 0.2757,-0.3471 0.3575,-0.5535c0.0819,-0.2063 0.1225,-0.4268 0.1196,-0.6489c-0.003,-0.2221 -0.0494,-0.4414 -0.1367,-0.6455z" fill="black" id="svg_23"/>
   <path d="m71.5934,44.119c0.0873,0.2041 0.2138,0.3889 0.3721,0.5439c0.1584,0.155 0.3456,0.2771 0.5509,0.3593c0.2053,0.0822 0.4247,0.123 0.6457,0.12c0.221,-0.003 0.4393,-0.0497 0.6423,-0.1375l14.5746,-6.2972c0.399,-0.1841 0.71,-0.5177 0.868,-0.9297c0.158,-0.412 0.149,-0.8696 -0.024,-1.2753c-0.173,-0.4056 -0.497,-0.7272 -0.903,-0.8959c-0.406,-0.1688 -0.861,-0.1715 -1.269,-0.0075l-14.5763,6.2972c-0.2031,0.0877 -0.387,0.2148 -0.5412,0.374c-0.1542,0.1592 -0.2756,0.3474 -0.3575,0.5538c-0.0818,0.2064 -0.1224,0.427 -0.1194,0.6492c0.0029,0.2222 0.0494,0.4416 0.1368,0.6457z" fill="black" id="svg_24"/>
   <path d="m74.636,53.6027c-0.0871,-0.2043 -0.2133,-0.3893 -0.3715,-0.5445c-0.1583,-0.1551 -0.3454,-0.2774 -0.5507,-0.3597c-0.2053,-0.0824 -0.4248,-0.1232 -0.6458,-0.1202c-0.221,0.003 -0.4393,0.0498 -0.6423,0.1377l-14.974,6.4679c-0.208,0.0842 -0.3971,0.2094 -0.5563,0.3681c-0.1592,0.1588 -0.2853,0.3479 -0.3707,0.5563c-0.0855,0.2084 -0.1287,0.4318 -0.1271,0.6573c0.0017,0.2254 0.0481,0.4482 0.1366,0.6553c0.0885,0.2071 0.2172,0.3944 0.3787,0.5508c0.1615,0.1563 0.3524,0.2783 0.5616,0.3603c0.2092,0.081 0.4324,0.119 0.6565,0.112c0.2242,-0.006 0.4447,-0.058 0.6487,-0.152l14.9742,-6.4676c0.2031,-0.0875 0.3871,-0.2144 0.5414,-0.3735c0.1543,-0.1591 0.2758,-0.3472 0.3578,-0.5535c0.0819,-0.2064 0.1226,-0.4269 0.1196,-0.6491c-0.0029,-0.2221 -0.0494,-0.4415 -0.1367,-0.6456z" fill="black" id="svg_25"/>
   <path d="m99.592,42.8205c-0.177,-0.4121 -0.509,-0.7369 -0.924,-0.9029c-0.414,-0.1661 -0.877,-0.1599 -1.287,0.0173l-14.9736,6.469c-0.41,0.1773 -0.7332,0.5111 -0.8984,0.9279c-0.1652,0.4169 -0.1589,0.8826 0.0175,1.2948c0.1764,0.4122 0.5085,0.7371 0.9231,0.9031c0.4147,0.1661 0.8779,0.1598 1.288,-0.0176l14.9734,-6.4688c0.203,-0.0878 0.387,-0.215 0.541,-0.3742c0.154,-0.1592 0.275,-0.3474 0.357,-0.5538c0.082,-0.2064 0.122,-0.427 0.119,-0.6492c-0.003,-0.2221 -0.049,-0.4415 -0.136,-0.6456z" fill="black" id="svg_26"/>
   <path d="m75.908,62.313l-15.3118,6.616c-0.2077,0.084 -0.3965,0.209 -0.5554,0.368c-0.1589,0.159 -0.2847,0.348 -0.37,0.556c-0.0852,0.208 -0.1283,0.432 -0.1266,0.657c0.0017,0.225 0.0482,0.448 0.1366,0.655c0.0884,0.207 0.217,0.394 0.3783,0.55c0.1613,0.156 0.352,0.279 0.5609,0.36c0.209,0.081 0.432,0.12 0.6559,0.113c0.2239,-0.006 0.4443,-0.058 0.6482,-0.151l15.314,-6.615c0.203,-0.088 0.3868,-0.215 0.541,-0.375c0.1541,-0.159 0.2756,-0.347 0.3574,-0.553c0.0818,-0.207 0.1223,-0.427 0.1193,-0.649c-0.0029,-0.223 -0.0494,-0.442 -0.1368,-0.646c-0.0873,-0.204 -0.2138,-0.389 -0.3721,-0.544c-0.1584,-0.155 -0.3456,-0.277 -0.5509,-0.359c-0.2053,-0.083 -0.4248,-0.123 -0.6457,-0.12c-0.221,0.003 -0.4393,0.049 -0.6423,0.137z" fill="black" id="svg_27"/>
   <path d="m101.431,51.2885l-15.313,6.6143c-0.207,0.0843 -0.396,0.2096 -0.555,0.3683c-0.159,0.1588 -0.285,0.3479 -0.371,0.5562c-0.085,0.2083 -0.128,0.4317 -0.127,0.657c0.002,0.2253 0.049,0.448 0.137,0.655c0.088,0.207 0.217,0.3942 0.378,0.5505c0.162,0.1564 0.353,0.2788 0.562,0.36c0.209,0.0812 0.432,0.1196 0.656,0.113c0.224,-0.0066 0.444,-0.0582 0.648,-0.1516l15.313,-6.6144c0.4,-0.1836 0.713,-0.5173 0.871,-0.9297c0.158,-0.4124 0.15,-0.8707 -0.024,-1.2769c-0.173,-0.4062 -0.498,-0.7279 -0.904,-0.8964c-0.407,-0.1685 -0.863,-0.1704 -1.271,-0.0053z" fill="black" id="svg_28"/>
  </g>
 </g>
</svg>