<svg width="124" height="124" viewBox="0 0 124 124" fill="none" xmlns="http://www.w3.org/2000/svg">
<path d="M17.4375 13.5625H106.562C108.618 13.5625 110.589 14.379 112.043 15.8324C113.496 17.2858 114.312 19.2571 114.312 21.3125V83.3125H9.6875V21.3125C9.6875 19.2571 10.504 17.2858 11.9574 15.8324C13.4108 14.379 15.3821 13.5625 17.4375 13.5625Z" stroke="black" stroke-width="3" stroke-linecap="round" stroke-linejoin="round"/>
<path d="M114.312 83.3125H9.6875L1.9375 102.688H122.062L114.312 83.3125Z" stroke="black" stroke-width="3" stroke-linecap="round" stroke-linejoin="round"/>
<path d="M1.9375 102.688H122.062V106.562C122.062 107.59 121.654 108.576 120.928 109.303C120.201 110.029 119.215 110.438 118.188 110.438H5.8125C4.78479 110.438 3.79916 110.029 3.07246 109.303C2.34576 108.576 1.9375 107.59 1.9375 106.562V102.688Z" stroke="black" stroke-width="3" stroke-linecap="round" stroke-linejoin="round"/>
<path d="M71.6875 94.9375H52.3125L48.4375 102.688H75.5625L71.6875 94.9375Z" stroke="black" stroke-width="3" stroke-linecap="round" stroke-linejoin="round"/>
<path d="M106.562 21.3125H17.4375V75.5625H106.562V21.3125Z" stroke="black" stroke-width="3" stroke-linecap="round" stroke-linejoin="round"/>
</svg>
