<svg width="124" height="124" viewBox="0 0 124 124" fill="none" xmlns="http://www.w3.org/2000/svg">
<path d="M98.2661 22.6261L98.2664 22.6263C99.4773 23.8306 100.437 25.263 101.091 26.8408C101.745 28.4185 102.079 30.1103 102.074 31.818V31.8184V105.363C102.071 108.216 100.935 110.952 98.9175 112.97C96.8996 114.987 94.1637 116.122 91.3101 116.125H32.6887C29.8354 116.122 27.0997 114.987 25.0821 112.969C23.0645 110.952 21.9296 108.216 21.9265 105.363L21.9265 18.6372C21.9296 15.7839 23.0645 13.0483 25.0821 11.0306C27.0997 9.01299 29.8354 7.87813 32.6887 7.87505L78.13 7.87505L78.1303 7.87505C79.8381 7.87029 81.5299 8.2044 83.1077 8.85803C84.6855 9.51166 86.1179 10.4718 87.322 11.6829L87.3223 11.6832L98.2661 22.6261ZM95.7045 25.1904L95.7032 25.189L84.7593 14.2461L84.759 14.2459C83.9312 13.4233 82.9569 12.7627 81.8863 12.2982L81.7116 12.2224V12.4129V26.7003V26.7003C81.7117 26.9296 81.8029 27.1495 81.965 27.3117C82.1272 27.4738 82.347 27.5649 82.5763 27.5651H82.5764H97.1766H97.3827L97.2874 27.3823C96.8687 26.5789 96.3355 25.8405 95.7045 25.1904ZM98.4493 105.363H98.4498L98.4487 105.351C98.4487 105.351 98.4487 105.351 98.4487 105.35C98.4486 105.349 98.4484 105.344 98.4481 105.334L98.4471 105.285C98.4465 105.243 98.4458 105.183 98.4453 105.107C98.4441 104.954 98.4431 104.735 98.4423 104.453C98.4406 103.89 98.4396 103.079 98.4391 102.055C98.4381 100.008 98.4391 97.1097 98.4412 93.6447C98.4432 90.3538 98.4462 86.5518 98.4494 82.4814C98.453 77.9801 98.4569 73.1506 98.4599 68.3213C98.4656 59.1253 98.4685 49.9307 98.461 43.0065C98.4572 39.5445 98.4509 36.6499 98.441 34.6065C98.4361 33.5849 98.4303 32.7758 98.4235 32.2148C98.4201 31.9344 98.4165 31.7155 98.4125 31.563C98.4106 31.4868 98.4085 31.4264 98.4064 31.3829C98.4053 31.3613 98.4041 31.3428 98.4029 31.3282C98.4021 31.3192 98.4003 31.2968 98.3944 31.2779L98.367 31.1901H98.2751H82.5765C81.3861 31.1888 80.2448 30.7154 79.403 29.8736C78.5613 29.0319 78.0878 27.8906 78.0866 26.7001V11.6251V11.5001H77.9616H32.6886H32.6885C30.7963 11.5022 28.9822 12.2548 27.6442 13.5928C26.3063 14.9307 25.5537 16.7448 25.5515 18.637V18.6371V105.363V105.363C25.5537 107.255 26.3063 109.069 27.6442 110.407C28.9822 111.745 30.7963 112.498 32.6885 112.5H32.6886H91.3103H91.3104C93.2028 112.498 95.0172 111.746 96.3556 110.408C97.6939 109.07 98.4468 107.256 98.4493 105.363Z" fill="#231F20" stroke="white" stroke-width="0.25"/>
<path d="M42.0573 48.2588C47.4228 48.2466 51.66 44.6813 51.4128 40.295V20.2899C55.742 20.8498 60.5178 22.009 60.9359 26.3444C60.9358 26.5989 60.9859 26.8508 61.0832 27.0859C61.1806 27.321 61.3233 27.5346 61.5032 27.7145C61.6831 27.8945 61.8966 28.0372 62.1317 28.1346C62.3668 28.232 62.6187 28.2821 62.8731 28.2821C67.1987 27.649 63.507 20.7328 60.8912 19.3913C58.7433 17.8503 48.1072 13.4709 47.5377 19.2546V34.689C42.2264 31.1725 32.5301 34.4288 32.702 40.7484C32.702 44.89 36.8986 48.2588 42.0573 48.2588ZM42.0573 37.1115C49.2796 37.3024 49.2798 44.1934 42.0572 44.3838C34.8341 44.1928 34.836 37.3018 42.0573 37.1115Z" fill="#231F20"/>
<path d="M58.5298 63.7577C58.9094 73.8195 77.3197 73.626 77.2057 63.4786C77.3089 63.2515 77.205 43.4553 77.2408 43.2265C81.576 43.7894 86.3527 44.9587 86.7638 49.3077C86.7694 49.8178 86.976 50.3052 87.3387 50.6639C87.7014 51.0227 88.191 51.2239 88.7012 51.2239C89.2114 51.2239 89.701 51.0227 90.0637 50.6639C90.4264 50.3052 90.633 49.8178 90.6386 49.3077C90.385 42.5008 83.4961 39.8112 76.8738 39.3061C76.4029 39.2623 75.928 39.3171 75.4794 39.467C75.0308 39.6168 74.6183 39.8585 74.2682 40.1765C73.9856 40.4317 73.7593 40.743 73.6039 41.0907C73.4485 41.4383 73.3673 41.8146 73.3657 42.1954V57.6987C68.0546 54.1823 58.3584 57.4375 58.5298 63.7577ZM73.3657 63.7577C73.1658 68.5261 62.6028 68.5261 62.4049 63.7575C62.6044 58.9877 73.1674 58.9909 73.3657 63.7577Z" fill="#231F20"/>
<path d="M65.2299 87.5896C65.2299 88.1034 65.434 88.5962 65.7974 88.9596C66.1607 89.3229 66.6535 89.5271 67.1674 89.5271C67.6812 89.5271 68.1741 89.3229 68.5374 88.9596C68.9008 88.5962 69.1049 88.1034 69.1049 87.5896C68.8486 80.7831 61.9644 78.0939 55.3401 77.588C54.9175 77.5328 54.4881 77.565 54.0785 77.6825C53.6689 77.8001 53.2878 78.0005 52.9588 78.2714C52.6298 78.5423 52.36 78.8778 52.166 79.2573C51.972 79.6367 51.858 80.0519 51.8311 80.4772V95.981C50.1651 95.02 48.2738 94.5189 46.3506 94.5288C33.9851 94.8613 33.9738 109.214 46.3508 109.551C51.7161 109.539 55.9533 105.973 55.706 101.586V81.5084C60.0426 82.0706 64.8177 83.2421 65.2299 87.5896ZM46.3506 105.676C39.1296 105.486 39.1294 98.5941 46.3508 98.4039C53.5739 98.5947 53.572 105.486 46.3506 105.676Z" fill="#231F20"/>
<path d="M53.2812 62C53.2812 61.4861 53.0771 60.9933 52.7138 60.63C52.3504 60.2666 51.8576 60.0625 51.3438 60.0625H31C30.4861 60.0625 29.9933 60.2666 29.63 60.63C29.2666 60.9933 29.0625 61.4861 29.0625 62C29.0625 62.5139 29.2666 63.0067 29.63 63.37C29.9933 63.7334 30.4861 63.9375 31 63.9375H51.3438C51.8576 63.9375 52.3504 63.7334 52.7138 63.37C53.0771 63.0067 53.2812 62.5139 53.2812 62Z" fill="#231F20"/>
<path d="M90.2944 100.102H63.6642C63.1569 100.112 62.6737 100.32 62.3184 100.683C61.9631 101.045 61.7641 101.532 61.7642 102.04C61.7642 102.547 61.9632 103.034 62.3185 103.396C62.6738 103.759 63.157 103.967 63.6643 103.977H90.2944C90.8017 103.967 91.2849 103.759 91.6402 103.396C91.9955 103.034 92.1945 102.547 92.1945 102.04C92.1945 101.532 91.9955 101.045 91.6402 100.683C91.2849 100.32 90.8017 100.112 90.2944 100.102Z" fill="#231F20"/>
</svg>
