<svg width="128" height="128" xmlns="http://www.w3.org/2000/svg" data-name="Layer 1">
 <title/>

 <g>
  <title>Layer 1</title>
  <path id="svg_1" d="m124.62883,17.8867l-64.458,-15.6728a0.97973,0.97973 0 0 0 -0.37939,-0.1866a0.99581,0.99581 0 0 0 -0.41561,-0.0068l-7.8593,-1.9111a3.85412,3.85412 0 0 0 -4.6553,2.8281l-1.2437,5.0625l2.0596,0l1.1265,-4.585a1.854,1.854 0 0 1 2.2402,-1.3623l7.292,1.7735l-0.9917,4.1738l2.0561,0l0.8799,-3.7012l15.2227,3.7012l6.0693,0a5.9792,5.9792 0 0 1 4.98631,2.6885l37.59769,9.1416a1.834,1.834 0 0 1 1.3496,2.2236l-25.1885,102.5303a1.85265,1.85265 0 0 1 -2.2392,1.3633l-10.51759,-2.5577l0,0.6016a5.97462,5.97462 0 0 1 -0.17481,1.4141l10.2197,2.4853a3.85275,3.85275 0 0 0 4.6543,-2.8291l25.1885,-102.5302a3.83487,3.83487 0 0 0 -2.8193,-4.6446z"/>
  <path id="svg_2" d="m87.06667,11.87547a3.999,3.999 0 0 0 -3.98831,-4.0088l-78.0234,0a3.99863,3.99863 0 0 0 -3.98829,4.0088l0,109.9824a3.99863,3.99863 0 0 0 3.98829,4.0088l78.0234,0a3.999,3.999 0 0 0 3.98831,-4.0088l0,-109.9824zm-3.98831,111.9912l-78.0234,0a2.00115,2.00115 0 0 1 -1.98829,-2.0088l0,-109.9824a2.00115,2.00115 0 0 1 1.98829,-2.0088l8.01171,0l0,107a1,1 0 0 0 2,0l0,-107l68.01169,0a2.00084,2.00084 0 0 1 1.98831,2.0088l0,109.9824a2.00084,2.00084 0 0 1 -1.98831,2.0088z"/>
  <circle id="svg_7" r="1" cy="123" cx="13"/>
  <path id="svg_19" d="m28.40677,30.3757c0,-1.08676 0.91324,-2 2,-2l37.69491,0c1.08676,0 2,0.91324 2,2l0,14.98305c0,1.08676 -0.91324,2 -2,2l-37.69491,0c-1.08676,0 -2,-0.91324 -2,-2l0,-14.98305z" opacity="undefined" stroke-width="2" stroke="#000000" fill="#ffffff"/>
  <rect id="svg_20" height="0" width="0.33898" y="128.54236" x="193.83049" stroke="#000000" fill="#ffffff"/>
  <rect id="svg_21" height="0" width="0.33898" y="119.72881" x="193.15253" stroke="#000000" fill="#ffffff"/>
  <path transform="rotate(13.8402 94.3557 40.3347)" stroke="#000000" id="svg_23" d="m83.54316,30.69114l19.76848,0.30404c1.00884,0 1.85661,0.91324 1.85661,2l0,14.98305c0,1.08676 -0.84776,2 -1.85661,2l-15.17396,-0.34848l-4.59452,-18.93862z" opacity="undefined" stroke-width="2" fill="#ffffff"/>
 </g>
</svg>