<svg width="128" height="128" viewBox="0 0 128 128" fill="none" xmlns="http://www.w3.org/2000/svg">
<g clip-path="url(#clip0_44_114)">
<path d="M45.5508 22.1771L45.5505 22.1773C44.4202 22.8718 42.97 22.8499 41.8689 22.1087C41.8684 22.1083 41.8679 22.108 41.8675 22.1077L11.1874 1.6553L11.1871 1.65514C10.0534 0.898441 8.73625 0.5 7.37455 0.5C3.58656 0.5 0.5 3.58391 0.5 7.37455V98.5658C0.5 101.447 1.96331 104.064 4.41618 105.573L4.41625 105.573L36.9892 125.619C36.9892 125.619 36.9893 125.619 36.9893 125.619C38.9085 126.799 41.1328 127.4 43.3758 127.445L43.3942 127.445L43.4125 127.447C43.4697 127.452 43.5189 127.463 43.5558 127.472C43.5838 127.479 43.6133 127.488 43.6304 127.493L43.6364 127.495C43.6517 127.49 43.6853 127.48 43.7169 127.472C43.7539 127.463 43.8031 127.452 43.8602 127.447L43.8785 127.445L43.8969 127.445C46.1399 127.4 48.3642 126.799 50.2863 125.616L66.7164 115.505C67.8489 114.806 68.2005 113.324 67.5043 112.192L67.504 112.192C66.808 111.057 65.3272 110.703 64.189 111.402L47.7617 121.514L47.7605 121.515C47.5736 121.629 47.3834 121.71 47.213 121.777C47.1419 121.805 47.0788 121.829 47.0195 121.851C46.9232 121.888 46.8368 121.92 46.7419 121.961L46.0455 122.258V121.501V37.8182C46.0455 36.4882 44.9686 35.4091 43.6364 35.4091C42.3041 35.4091 41.2273 36.4882 41.2273 37.8182V121.501V122.258L40.5308 121.961C40.4352 121.92 40.3473 121.887 40.2496 121.85C40.1913 121.828 40.1296 121.805 40.0607 121.778C39.8911 121.712 39.7017 121.631 39.5163 121.518L39.5139 121.517L6.94377 101.473C5.92612 100.847 5.31818 99.7577 5.31818 98.5658V7.37455C5.31818 6.57006 5.8186 5.93329 6.43073 5.60654C7.04256 5.27996 7.84961 5.21848 8.51641 5.66432C8.51643 5.66433 8.51645 5.66435 8.51647 5.66436L39.1973 26.1202C39.1974 26.1203 39.1976 26.1204 39.1978 26.1205C41.8662 27.8919 45.3444 27.9575 48.0754 26.2825L45.5508 22.1771ZM45.5508 22.1771L77.7132 2.38103M45.5508 22.1771L77.7132 2.38103M91.0109 2.38087L123.583 22.4242L91.0109 2.38087ZM91.0109 2.38087C87.0116 -0.0774337 81.7187 -0.0776259 77.7132 2.38103M91.0109 2.38087L77.7132 2.38103M80.2346 6.49138L48.076 26.2822L116.809 126.345L100.478 115.456L100.478 115.456C99.3699 114.719 99.0712 113.221 99.8105 112.115L99.8109 112.114C100.548 111.009 102.039 110.707 103.153 111.448L119.483 122.335C120.149 122.782 120.956 122.72 121.568 122.394C122.18 122.067 122.682 121.43 122.682 120.625V29.4342C122.682 28.2423 122.074 27.1531 121.056 26.5269L88.4861 6.48326L88.4837 6.48183C88.2983 6.36915 88.1089 6.2884 87.9393 6.22203C87.8704 6.19505 87.8087 6.17182 87.7505 6.1499C87.6527 6.11308 87.5648 6.07999 87.4692 6.03912L86.7727 5.74154V6.49891V55.2727C86.7727 56.6027 85.6959 57.6818 84.3636 57.6818C83.0314 57.6818 81.9545 56.6027 81.9545 55.2727V6.49891V5.74154L81.2581 6.03912C81.1644 6.07916 81.0802 6.11087 80.9863 6.14622C80.9252 6.16923 80.86 6.19379 80.7854 6.22319C80.6146 6.29051 80.4234 6.37323 80.2368 6.49002C80.2361 6.49047 80.2353 6.49093 80.2346 6.49138ZM120.625 127.5C119.264 127.5 117.947 127.102 116.81 126.345L123.584 22.4244C126.037 23.9364 127.5 26.5535 127.5 29.4342V120.625C127.5 124.416 124.413 127.5 120.625 127.5Z" fill="black" stroke="white"/>
<path d="M83.9374 119.912L84.3636 120.608L84.7899 119.912C87.138 116.082 90.7853 109.826 93.8474 103.228C96.8993 96.6511 99.4091 89.6527 99.4091 84.3636C99.4091 76.0671 92.6601 69.3182 84.3636 69.3182C76.0671 69.3182 69.3182 76.0671 69.3182 84.3636C69.3182 89.6527 71.828 96.6511 74.8799 103.228C77.9419 109.826 81.5893 116.082 83.9374 119.912ZM64.5 84.3636C64.5 73.4107 73.4136 64.5 84.3636 64.5C95.3137 64.5 104.227 73.4107 104.227 84.3636C104.227 88.094 103.173 92.5161 101.555 97.0929C99.9405 101.663 97.7769 106.354 95.5859 110.613C91.204 119.131 86.7298 125.885 86.368 126.428C85.9194 127.098 85.1676 127.5 84.3636 127.5C83.5597 127.5 82.8079 127.098 82.3593 126.428C81.9975 125.885 77.5232 119.131 73.1413 110.613C70.9504 106.354 68.7868 101.663 67.172 97.0929C65.5548 92.5161 64.5 88.094 64.5 84.3636Z" fill="black" stroke="white"/>
<path d="M84.3636 90.1818C87.5769 90.1818 90.1818 87.5769 90.1818 84.3636C90.1818 81.1503 87.5769 78.5454 84.3636 78.5454C81.1503 78.5454 78.5454 81.1503 78.5454 84.3636C78.5454 87.5769 81.1503 90.1818 84.3636 90.1818Z" fill="black"/>
</g>
<defs>
<clipPath id="clip0_44_114">
<rect width="128" height="128" fill="white"/>
</clipPath>
</defs>
</svg>
