<svg width="128" height="128" viewBox="0 0 128 128" fill="none" xmlns="http://www.w3.org/2000/svg">
<path d="M15.5 93.8133V95.0224L16.3539 94.1665L38.8804 71.5875L51.8597 84.5669L52.2133 84.9204L52.5668 84.5669L78.88 58.2538L106.313 85.6869L107.167 86.5404V85.3333V32C107.167 25.8572 102.143 20.8333 96 20.8333H26.6666C20.5238 20.8333 15.5 25.8572 15.5 32V93.8133ZM52.2133 91.0796L39.2335 78.0998L38.88 77.7462L38.5264 78.0998L15.6464 100.98L15.5 101.126V101.333C15.5 107.476 20.5238 112.5 26.6666 112.5H96C102.143 112.5 107.167 107.476 107.167 101.333V92.8533V92.646L107.02 92.4994L79.2332 64.7661L78.8796 64.4132L78.5264 64.7664L52.2133 91.0796ZM26.6666 16.5H96C104.577 16.5 111.5 23.4228 111.5 32V101.333C111.5 109.911 104.577 116.833 96 116.833H26.6666C18.0894 116.833 11.1666 109.911 11.1666 101.333V32C11.1666 23.4228 18.0894 16.5 26.6666 16.5ZM40 32.5C47.0838 32.5 52.8333 38.2495 52.8333 45.3333C52.8333 52.4172 47.0838 58.1667 40 58.1667C32.9161 58.1667 27.1666 52.4172 27.1666 45.3333C27.1666 38.2495 32.9161 32.5 40 32.5ZM40 36.8333C35.2972 36.8333 31.5 40.6305 31.5 45.3333C31.5 50.0361 35.2972 53.8333 40 53.8333C44.7028 53.8333 48.5 50.0361 48.5 45.3333C48.5 40.6305 44.7028 36.8333 40 36.8333Z" fill="black" stroke="white"/>
</svg>
