<svg width="150" height="150" viewBox="0 0 150 150" fill="none" xmlns="http://www.w3.org/2000/svg">
<g clip-path="url(#clip0_44_59)">
<path d="M132.838 9.40137H37.8872C37.1182 6.73146 35.4783 4.37365 33.2122 2.67944C30.946 0.985232 28.1749 0.0453783 25.3119 0C21.7251 0.0914477 18.3223 1.55721 15.851 4.07539C13.3797 6.59357 12.0419 9.95826 12.1314 13.4305V135.471C11.8656 137.278 12.0041 139.119 12.5376 140.869C13.0711 142.62 13.987 144.239 15.2234 145.616C16.4597 146.994 17.9875 148.099 19.7034 148.855C21.4192 149.611 23.283 150.002 25.1683 150H102.809C103.729 149.999 104.61 149.645 105.261 149.016C105.911 148.386 106.277 147.533 106.277 146.642V143.035H123.62C124.54 143.035 125.422 142.681 126.072 142.051C126.722 141.422 127.088 140.568 127.089 139.678V135.649H132.838C133.942 135.649 135 135.224 135.781 134.469C136.561 133.713 137 132.688 137 131.62V13.4308C137 12.9017 136.892 12.3777 136.683 11.8888C136.474 11.4 136.168 10.9558 135.781 10.5816C135.394 10.2074 134.936 9.9106 134.431 9.7081C133.926 9.5056 133.384 9.40137 132.838 9.40137ZM122.926 139.006H30.6624C30.1706 139.006 29.6843 138.905 29.236 138.709C28.7876 138.513 28.3874 138.227 28.0619 137.87C27.7363 137.513 27.4929 137.093 27.3477 136.638C27.2025 136.183 27.1588 135.704 27.2197 135.231C27.322 134.515 27.6563 133.848 28.1746 133.327C28.6929 132.806 29.3685 132.457 30.1043 132.331C30.2868 132.305 30.4712 132.292 30.6558 132.291C31.2753 132.289 31.8841 132.447 32.4187 132.75C32.9532 133.053 33.3937 133.49 33.6942 134.015L33.6956 134.017C33.9962 134.529 34.4321 134.954 34.9586 135.248C35.4852 135.543 36.0832 135.696 36.6912 135.692L122.926 135.675L122.926 139.006ZM25.1682 145.971C22.9355 145.972 20.7815 145.172 19.1228 143.725C17.4641 142.279 16.4184 140.288 16.188 138.138C15.9576 135.988 16.5589 133.832 17.8755 132.087C19.1921 130.341 21.1305 129.13 23.316 128.688C23.9162 128.573 24.5266 128.515 25.1384 128.515C25.9997 128.518 26.8562 128.64 27.6822 128.876C26.0647 129.54 24.7342 130.725 23.9161 132.231C23.098 133.736 22.8427 135.468 23.1935 137.135C23.5442 138.801 24.4795 140.299 25.8407 141.375C27.2019 142.45 28.9053 143.037 30.6623 143.035H102.115V145.971H25.1682ZM25.3119 4.02916C27.7936 4.12416 30.1354 5.16648 31.8254 6.92823C33.5154 8.68998 34.4159 11.0278 34.3302 13.4305V128.071C32.7881 126.629 30.9065 125.571 28.8479 124.99C26.7892 124.409 24.6154 124.321 22.5141 124.735C20.1877 125.194 18.0361 126.262 16.2937 127.822V13.4305C16.2079 11.0278 17.1085 8.68998 18.7985 6.92823C20.4885 5.16648 22.8303 4.12416 25.3119 4.02916ZM132.838 131.619H38.4925V13.4305H132.838V131.619Z" fill="black"/>
<path d="M48.2046 58.423H123.126C123.494 58.423 123.847 58.2815 124.107 58.0296C124.367 57.7778 124.513 57.4362 124.513 57.08V26.1897C124.513 25.8335 124.367 25.4919 124.107 25.24C123.847 24.9882 123.494 24.8467 123.126 24.8467H48.2046C47.8366 24.8467 47.4837 24.9882 47.2235 25.24C46.9633 25.4919 46.8171 25.8335 46.8171 26.1897V57.08C46.8171 57.4362 46.9633 57.7778 47.2235 58.0296C47.4837 58.2815 47.8366 58.423 48.2046 58.423ZM50.9794 28.8758H120.351V54.3939H50.9794V28.8758Z" fill="black"/>
<path d="M123.126 71.1816H91.2148C90.8469 71.1816 90.494 71.3231 90.2338 71.575C89.9736 71.8269 89.8274 72.1685 89.8274 72.5247V115.502C89.8274 115.859 89.9736 116.2 90.2338 116.452C90.494 116.704 90.8469 116.845 91.2148 116.845H123.126C123.494 116.845 123.847 116.704 124.107 116.452C124.367 116.2 124.513 115.859 124.513 115.502V72.5247C124.513 72.1685 124.367 71.8269 124.107 71.575C123.847 71.3231 123.494 71.1816 123.126 71.1816ZM120.351 112.816H93.9897V75.2108H120.351V112.816Z" fill="black"/>
<path d="M79.6852 98.7144H49.1617C48.6098 98.7144 48.0804 98.9266 47.6901 99.3044C47.2998 99.6822 47.0806 100.195 47.0806 100.729C47.0806 101.263 47.2998 101.776 47.6901 102.153C48.0804 102.531 48.6098 102.744 49.1617 102.744H79.6852C80.2371 102.744 80.7665 102.531 81.1568 102.153C81.547 101.776 81.7663 101.263 81.7663 100.729C81.7663 100.195 81.547 99.6822 81.1568 99.3044C80.7665 98.9266 80.2371 98.7144 79.6852 98.7144Z" fill="black"/>
<path d="M79.6852 112.145H49.1617C48.6098 112.145 48.0804 112.357 47.6901 112.735C47.2998 113.113 47.0806 113.625 47.0806 114.16C47.0806 114.694 47.2998 115.206 47.6901 115.584C48.0804 115.962 48.6098 116.174 49.1617 116.174H79.6852C80.2371 116.174 80.7665 115.962 81.1568 115.584C81.547 115.206 81.7663 114.694 81.7663 114.16C81.7663 113.625 81.547 113.113 81.1568 112.735C80.7665 112.357 80.2371 112.145 79.6852 112.145Z" fill="black"/>
<path d="M79.6852 85.208H49.1617C48.6098 85.208 48.0804 85.4203 47.6901 85.7981C47.2998 86.1759 47.0806 86.6883 47.0806 87.2226C47.0806 87.7569 47.2998 88.2693 47.6901 88.6471C48.0804 89.0249 48.6098 89.2372 49.1617 89.2372H79.6852C80.2371 89.2372 80.7665 89.0249 81.1568 88.6471C81.547 88.2693 81.7663 87.7569 81.7663 87.2226C81.7663 86.6883 81.547 86.1759 81.1568 85.7981C80.7665 85.4203 80.2371 85.208 79.6852 85.208Z" fill="black"/>
<path d="M79.6852 71.7012H49.1617C48.6098 71.7012 48.0804 71.9134 47.6901 72.2912C47.2998 72.669 47.0806 73.1815 47.0806 73.7158C47.0806 74.2501 47.2998 74.7625 47.6901 75.1403C48.0804 75.5181 48.6098 75.7303 49.1617 75.7303H79.6852C80.2371 75.7303 80.7665 75.5181 81.1568 75.1403C81.547 74.7625 81.7663 74.2501 81.7663 73.7158C81.7663 73.1815 81.547 72.669 81.1568 72.2912C80.7665 71.9134 80.2371 71.7012 79.6852 71.7012Z" fill="black"/>
</g>
<defs>
<clipPath id="clip0_44_59">
<rect width="150" height="150" fill="white"/>
</clipPath>
</defs>
</svg>
