<svg width="128" height="128" viewBox="0 0 128 128" fill="none" xmlns="http://www.w3.org/2000/svg">
<path d="M89.3063 26.346H89.6179H103.972C103.976 26.3453 103.982 26.3444 103.989 26.3436C103.999 26.3424 104.012 26.3412 104.027 26.341M89.3063 26.346L104.031 26.591M89.3063 26.346L89.3738 26.6502C91.2038 34.8972 95.4521 46.157 102.311 60.9581L102.538 60.853M89.3063 26.346L102.538 60.853M104.027 26.341C104.028 26.341 104.03 26.341 104.031 26.341V26.591M104.027 26.341C104.026 26.341 104.026 26.3411 104.025 26.3411L104.031 26.591M104.027 26.341C104.142 26.3383 104.253 26.3259 104.358 26.303M104.031 26.591C104.161 26.588 104.289 26.574 104.412 26.547M104.358 26.303C104.357 26.303 104.357 26.3031 104.357 26.3031L104.412 26.547M104.358 26.303C104.364 26.3015 104.373 26.2988 104.39 26.2931C104.403 26.2886 104.431 26.2786 104.455 26.2711L104.462 26.2691L104.462 26.2692C104.557 26.2428 104.642 26.2132 104.721 26.1758L104.412 26.547M104.358 26.303C104.358 26.3029 104.358 26.3029 104.358 26.3028L104.412 26.547M102.538 60.853L102.311 60.9581C116.315 91.1656 114.445 107.831 112.119 115.037C109.5 123.145 103.595 127.75 95.9059 127.75C95.8829 127.75 95.8599 127.75 95.8355 127.75C95.8228 127.749 95.8097 127.749 95.7963 127.749C95.7843 127.749 95.7722 127.749 95.7599 127.749H27.2479C20.1454 127.749 14.2649 120.269 14.2649 110.934C14.2649 107.585 15.0295 104.145 16.84 101.537C18.6424 98.9404 21.4929 97.1489 25.7211 97.094L25.7211 97.0943L25.7335 97.0935C25.7624 97.0917 25.791 97.0871 25.8008 97.0857C25.8088 97.0845 25.8124 97.0841 25.8135 97.084H25.8969C25.9032 97.084 25.9091 97.0838 25.9139 97.0836C25.9186 97.0838 25.924 97.084 25.9299 97.084H41.6269H41.9074L41.8752 96.8054C40.9026 88.3726 37.9534 77.1107 31.1477 62.4289C16.2874 30.3697 14.7117 20.9226 17.5704 10.2587L17.5704 10.2587C18.4205 7.08539 19.918 4.65407 21.9944 2.98524C24.0706 1.31657 26.745 0.394707 29.9762 0.273825L29.9859 0.273463M102.538 60.853L29.9859 0.273463M29.9859 0.273463L29.9955 0.272352M29.9859 0.273463L29.9955 0.272352M29.9955 0.272352C30.0314 0.268212 30.0599 0.26425 30.0844 0.260843C30.1304 0.254443 30.1624 0.25 30.2029 0.25H97.39C97.3901 0.250018 97.3903 0.250037 97.3904 0.250057C97.3939 0.250546 97.4027 0.251821 97.4122 0.252826C97.4221 0.253876 97.4354 0.254957 97.451 0.254998C104.797 0.281573 110.964 5.69866 111.526 12.5843C112.113 19.8076 108.414 24.323 104.779 26.1541M29.9955 0.272352L104.779 26.1541M104.779 26.1541L104.778 26.1542C104.774 26.1554 104.766 26.158 104.758 26.161C104.748 26.1644 104.736 26.1691 104.722 26.1756L104.779 26.1541ZM103.98 26.346H103.98C103.981 26.346 103.982 26.346 103.984 26.346H103.984H103.984H103.984H103.984H103.984H103.984H103.983H103.983H103.983H103.983H103.983H103.983H103.983H103.983H103.983H103.983H103.983H103.983H103.983H103.983H103.983H103.983H103.982H103.982H103.982H103.982H103.982H103.982H103.982H103.982H103.982H103.982H103.982H103.982H103.982H103.982H103.982H103.982H103.981H103.981H103.981H103.981H103.981H103.981H103.981H103.981H103.981H103.981H103.981H103.981H103.981H103.981H103.981H103.98H103.98H103.98H103.98H103.98H103.98H103.98H103.98H103.98ZM103.47 22.846H103.538L103.596 22.8118C104.382 22.3518 105.621 21.4377 106.6 19.8476C107.581 18.2542 108.292 15.9968 108.037 12.8687C107.62 7.74386 102.939 3.75986 97.4122 3.75301C97.4098 3.75269 97.4072 3.75236 97.4045 3.75206C97.396 3.75109 97.3836 3.75 97.3689 3.75H39.9329H39.395L39.7418 4.16119C41.8953 6.7142 42.8783 10.1529 42.98 13.3369C43.0618 15.9078 42.4031 19.6013 40.4419 22.4544L40.1727 22.846H40.6479H103.47ZM29.8742 20.9573L29.8743 20.9575C30.8478 22.1961 32.1129 22.803 33.7149 22.803C34.895 22.803 35.9136 22.3371 36.8165 21.405C38.521 19.6455 39.3337 16.7466 39.4665 14.4444L39.4817 14.18H39.2169H28.4609H28.2311L28.2118 14.409C28.0089 16.8166 28.6116 19.3484 29.8742 20.9573ZM41.3139 111.224H41.5184L41.5589 111.024C42.0833 108.43 42.4115 105.064 42.2086 100.822L42.1972 100.584H41.9589H32.6169H32.1867L32.3997 100.958C32.4375 101.024 32.4735 101.084 32.5078 101.142C32.5722 101.249 32.631 101.348 32.6863 101.461L32.6865 101.461C34.0662 104.272 34.0753 107.756 32.8394 110.882L32.7042 111.224H33.0719H41.3139ZM25.9287 100.584H25.9279H25.9009H25.9005C24.0785 100.587 22.6472 101.041 21.5292 101.782C20.4126 102.521 19.623 103.535 19.0671 104.637C17.9587 106.834 17.7659 109.403 17.7659 110.934C17.7659 114.522 18.8366 117.84 20.5512 120.267C22.2643 122.691 24.6401 124.249 27.2479 124.249C30.8832 124.249 33.57 123.689 35.6579 122.24C37.7466 120.79 39.1975 118.477 40.4213 115.058L40.5409 114.724H40.1859H29.6753C29.6644 114.722 29.6435 114.718 29.6198 114.717L29.6146 114.717C29.2533 114.707 28.8956 114.593 28.5921 114.358C27.828 113.766 27.6882 112.667 28.2796 111.903L28.2797 111.903C30.6409 108.849 30.6037 105.16 29.5454 103.002C29.0162 101.923 27.9467 100.59 25.9287 100.584ZM39.2011 123.819L38.7565 124.249H39.3749H95.7674C95.8071 124.251 95.8554 124.25 95.8839 124.249C95.8928 124.249 95.8998 124.249 95.9039 124.249C98.9804 124.249 101.671 123.336 103.861 121.585C106.049 119.835 107.722 117.262 108.788 113.962C110.985 107.159 112.601 91.4777 99.1377 62.4279C91.8266 46.6559 87.5517 35.1832 85.7667 26.5444L85.7255 26.345H85.5219H33.7159C33.5725 26.345 33.4319 26.3223 33.2873 26.2856L33.2632 26.2796L33.2385 26.2783C30.7649 26.1539 28.6594 25.0781 27.1216 23.1177L27.1216 23.1177C24.6172 19.926 24.2762 15.2406 25.0667 12.0145L25.0667 12.0144C25.2583 11.2314 25.96 10.681 26.7659 10.681H38.7999H39.1229L39.0419 10.3683C38.6614 8.89864 37.956 7.24372 36.6496 5.95421C35.337 4.65846 33.4358 3.75 30.7049 3.75C28.1179 3.75 26.0077 4.35054 24.3748 5.59145C22.7415 6.83261 21.6127 8.69385 20.9504 11.1643L20.9504 11.1643C19.7398 15.6826 19.2715 19.9196 21.0185 27.1428C22.7614 34.3487 26.7106 44.5335 34.3231 60.9571L34.5499 60.852L34.3231 60.9571C41.7915 77.0674 44.7428 89.3241 45.5208 98.3505L45.5226 98.3714L45.5279 98.3917C45.5668 98.5417 45.5919 98.6864 45.5919 98.834C45.5919 98.8502 45.5902 98.8694 45.5863 98.8986C45.5849 98.909 45.583 98.9227 45.5809 98.9381C45.5781 98.9588 45.575 98.9826 45.573 99.005L45.571 99.0259L45.5726 99.0467C46.0457 105.347 45.4535 110.022 44.6275 113.291L44.6274 113.291L44.6258 113.298C44.6238 113.307 44.6219 113.314 44.6197 113.323C44.6165 113.334 44.6128 113.348 44.6069 113.37L44.6066 113.372C44.4538 113.974 44.2933 114.531 44.13 115.037C42.8681 118.945 41.285 121.805 39.2011 123.819ZM32.9067 100.834C32.881 100.791 32.8564 100.749 32.8341 100.71L32.6169 100.834V101.084H32.7645L32.9067 100.834Z" fill="black" stroke="white" stroke-width="0.5"/>
<path d="M79.0159 38.5C79.8437 38.5 80.5159 39.1721 80.5159 40C80.5159 40.8279 79.8437 41.5 79.0159 41.5H37.0159C36.188 41.5 35.5159 40.8279 35.5159 40C35.5159 39.1721 36.188 38.5 37.0159 38.5H79.0159Z" fill="black" stroke="white"/>
<path d="M85.0159 52.5C85.8437 52.5 86.5159 53.1721 86.5159 54C86.5159 54.8279 85.8437 55.5 85.0159 55.5H43.0159C42.188 55.5 41.5159 54.8279 41.5159 54C41.5159 53.1721 42.188 52.5 43.0159 52.5H85.0159Z" fill="black" stroke="white"/>
<path d="M91.0159 66.5C91.8437 66.5 92.5159 67.1721 92.5159 68C92.5159 68.8279 91.8437 69.5 91.0159 69.5H49.0159C48.188 69.5 47.5159 68.8279 47.5159 68C47.5159 67.1721 48.188 66.5 49.0159 66.5H91.0159Z" fill="black" stroke="white"/>
<path d="M97.5159 82C97.5159 82.8279 96.8437 83.5 96.0159 83.5H54.0159C53.188 83.5 52.5159 82.8279 52.5159 82C52.5159 81.1721 53.188 80.5 54.0159 80.5H96.0159C96.8437 80.5 97.5159 81.1721 97.5159 82Z" fill="black" stroke="white"/>
<path d="M57.0159 97.5C56.188 97.5 55.5159 96.8279 55.5159 96C55.5159 95.172 56.1872 94.5 57.0159 94.5H99.0159C99.8437 94.5 100.516 95.1721 100.516 96C100.516 96.8279 99.8437 97.5 99.0159 97.5H57.0159Z" fill="black" stroke="white"/>
</svg>
