<svg width="128" height="98" viewBox="0 0 128 98" fill="none" xmlns="http://www.w3.org/2000/svg">
<g clip-path="url(#clip0_44_141)">
<path d="M112.762 88.9375C114.619 88.9375 116.176 88.3149 117.269 87.2163C118.363 86.1178 118.982 84.5532 118.982 82.6875V1.53125C118.982 1.04365 118.82 0.627524 118.527 0.332921C118.233 0.0382634 117.819 -0.125 117.333 -0.125C116.847 -0.125 116.433 0.0382634 116.14 0.332921C115.847 0.627524 115.684 1.04365 115.684 1.53125V82.6875C115.684 84.0352 115.239 84.7572 114.672 85.1495C114.095 85.5481 113.365 85.625 112.762 85.625C112.613 85.625 111.877 85.6243 111.182 85.2567C110.837 85.0739 110.503 84.8013 110.254 84.3931C110.006 83.9849 109.839 83.4339 109.839 82.6875V1.53125C109.839 1.04365 109.677 0.627524 109.384 0.332921C109.09 0.0382634 108.676 -0.125 108.19 -0.125C107.705 -0.125 107.29 0.0382634 106.997 0.332921C106.704 0.627524 106.542 1.04365 106.542 1.53125V82.6875C106.542 86.7493 109.657 88.9375 112.762 88.9375Z" fill="black" stroke="black" stroke-width="0.25"/>
<path d="M13.7142 64.3125H44.1904C45.1047 64.3125 45.7142 63.7 45.7142 62.7812V35.2188C45.7142 34.3 45.1047 33.6875 44.1904 33.6875H13.7142C12.8 33.6875 12.1904 34.3 12.1904 35.2188V62.7812C12.1904 63.7 12.8 64.3125 13.7142 64.3125ZM15.238 36.75H42.6666V61.25H15.238V36.75Z" fill="black"/>
<path d="M13.7142 24.5H86.8571C87.7714 24.5 88.3809 23.8875 88.3809 22.9688V10.7188C88.3809 9.8 87.7714 9.1875 86.8571 9.1875H13.7142C12.8 9.1875 12.1904 9.8 12.1904 10.7188V22.9688C12.1904 23.8875 12.8 24.5 13.7142 24.5ZM15.238 12.25H85.3333V21.4375H15.238V12.25Z" fill="black"/>
<path d="M86.8572 33.6875H56.381C55.4667 33.6875 54.8572 34.3 54.8572 35.2188C54.8572 36.1375 55.4667 36.75 56.381 36.75H86.8572C87.7715 36.75 88.381 36.1375 88.381 35.2188C88.381 34.3 87.7715 33.6875 86.8572 33.6875Z" fill="black"/>
<path d="M86.8572 42.875H56.381C55.4667 42.875 54.8572 43.4875 54.8572 44.4062C54.8572 45.325 55.4667 45.9375 56.381 45.9375H86.8572C87.7715 45.9375 88.381 45.325 88.381 44.4062C88.381 43.4875 87.7715 42.875 86.8572 42.875Z" fill="black"/>
<path d="M86.8572 52.0625H56.381C55.4667 52.0625 54.8572 52.675 54.8572 53.5938C54.8572 54.5125 55.4667 55.125 56.381 55.125H86.8572C87.7715 55.125 88.381 54.5125 88.381 53.5938C88.381 52.675 87.7715 52.0625 86.8572 52.0625Z" fill="black"/>
<path d="M86.8572 61.25H56.381C55.4667 61.25 54.8572 61.8625 54.8572 62.7812C54.8572 63.7 55.4667 64.3125 56.381 64.3125H86.8572C87.7715 64.3125 88.381 63.7 88.381 62.7812C88.381 61.8625 87.7715 61.25 86.8572 61.25Z" fill="black"/>
<path d="M86.8572 70.4375H56.381C55.4667 70.4375 54.8572 71.05 54.8572 71.9688C54.8572 72.8875 55.4667 73.5 56.381 73.5H86.8572C87.7715 73.5 88.381 72.8875 88.381 71.9688C88.381 71.05 87.7715 70.4375 86.8572 70.4375Z" fill="black"/>
<path d="M13.7142 73.5H44.1904C45.1047 73.5 45.7142 72.8875 45.7142 71.9688C45.7142 71.05 45.1047 70.4375 44.1904 70.4375H13.7142C12.8 70.4375 12.1904 71.05 12.1904 71.9688C12.1904 72.8875 12.8 73.5 13.7142 73.5Z" fill="black"/>
<path d="M86.8572 79.625H56.381C55.4667 79.625 54.8572 80.2375 54.8572 81.1562C54.8572 82.075 55.4667 82.6875 56.381 82.6875H86.8572C87.7715 82.6875 88.381 82.075 88.381 81.1562C88.381 80.2375 87.7715 79.625 86.8572 79.625Z" fill="black"/>
<path d="M13.7142 82.6875H44.1904C45.1047 82.6875 45.7142 82.075 45.7142 81.1562C45.7142 80.2375 45.1047 79.625 44.1904 79.625H13.7142C12.8 79.625 12.1904 80.2375 12.1904 81.1562C12.1904 82.075 12.8 82.6875 13.7142 82.6875Z" fill="black"/>
<path d="M97.7035 86.0562V86.0763L97.7098 86.0955C97.796 86.3551 97.858 86.5948 97.9182 86.8275C98.0618 87.3827 98.1951 87.8979 98.6205 88.5478C98.6214 88.5558 98.6226 88.5647 98.6242 88.5745C98.6303 88.6113 98.6428 88.6624 98.669 88.715C98.6954 88.768 98.737 88.825 98.8018 88.8684C98.8485 88.8997 98.9034 88.9214 98.9666 88.9313C99.0272 89.057 99.0885 89.1948 99.1538 89.3414L99.1667 89.3705C99.2476 89.5522 99.3343 89.7459 99.4309 89.94C99.6163 90.3126 99.8413 90.6936 100.142 91.007V91.2624V91.314L100.178 91.3506C100.476 91.6497 100.699 91.9491 100.928 92.2559L100.93 92.2583C101.158 92.5633 101.391 92.8755 101.702 93.1881L102.007 93.4943L102.018 93.5056C102.493 93.9826 102.98 94.4723 103.473 94.8124H15.238C8.60088 94.8124 2.86778 89.3545 2.86778 82.3811V2.88115H97.3987V82.6874V82.696C97.3987 83.603 97.3987 84.5323 97.7035 85.4637V85.4647V85.4664V85.4681V85.4698V85.4715V85.4732V85.4748V85.4765V85.4782V85.4798V85.4815V85.4831V85.4848V85.4864V85.488V85.4896V85.4912V85.4929V85.4945V85.496V85.4976V85.4992V85.5008V85.5024V85.5039V85.5055V85.507V85.5086V85.5101V85.5116V85.5132V85.5147V85.5162V85.5177V85.5192V85.5207V85.5222V85.5237V85.5252V85.5267V85.5281V85.5296V85.5311V85.5325V85.534V85.5354V85.5368V85.5383V85.5397V85.5411V85.5425V85.5439V85.5453V85.5467V85.5481V85.5495V85.5509V85.5523V85.5536V85.555V85.5564V85.5577V85.5591V85.5604V85.5618V85.5631V85.5645V85.5658V85.5671V85.5684V85.5697V85.5711V85.5724V85.5737V85.575V85.5762V85.5775V85.5788V85.5801V85.5814V85.5826V85.5839V85.5852V85.5864V85.5877V85.5889V85.5901V85.5914V85.5926V85.5938V85.5951V85.5963V85.5975V85.5987V85.5999V85.6011V85.6023V85.6035V85.6047V85.6059V85.6071V85.6083V85.6094V85.6106V85.6118V85.6129V85.6141V85.6152V85.6164V85.6175V85.6187V85.6198V85.621V85.6221V85.6232V85.6244V85.6255V85.6266V85.6277V85.6288V85.6299V85.6311V85.6322V85.6333V85.6343V85.6354V85.6365V85.6376V85.6387V85.6398V85.6409V85.6419V85.643V85.6441V85.6451V85.6462V85.6473V85.6483V85.6494V85.6504V85.6515V85.6525V85.6535V85.6546V85.6556V85.6566V85.6577V85.6587V85.6597V85.6608V85.6618V85.6628V85.6638V85.6648V85.6658V85.6668V85.6678V85.6688V85.6698V85.6708V85.6718V85.6728V85.6738V85.6748V85.6758V85.6768V85.6777V85.6787V85.6797V85.6807V85.6817V85.6826V85.6836V85.6846V85.6855V85.6865V85.6875V85.6884V85.6894V85.6903V85.6913V85.6922V85.6932V85.6941V85.6951V85.696V85.697V85.6979V85.6989V85.6998V85.7007V85.7017V85.7026V85.7035V85.7045V85.7054V85.7063V85.7073V85.7082V85.7091V85.71V85.711V85.7119V85.7128V85.7137V85.7146V85.7156V85.7165V85.7174V85.7183V85.7192V85.7201V85.721V85.722V85.7229V85.7238V85.7247V85.7256V85.7265V85.7274V85.7283V85.7292V85.7301V85.731V85.7319V85.7328V85.7337V85.7346V85.7355V85.7364V85.7373V85.7382V85.7391V85.74V85.7409V85.7418V85.7427V85.7436V85.7445V85.7454V85.7463V85.7472V85.7481V85.749V85.7499V85.7508V85.7517V85.7526V85.7535V85.7544V85.7553V85.7562V85.7571V85.758V85.7589V85.7598V85.7607V85.7616V85.7625V85.7634V85.7643V85.7652V85.7661V85.767V85.7679V85.7688V85.7697V85.7706V85.7715V85.7724V85.7733V85.7742V85.7751V85.776V85.7769V85.7778V85.7788V85.7797V85.7806V85.7815V85.7824V85.7833V85.7842V85.7852V85.7861V85.787V85.7879V85.7888V85.7898V85.7907V85.7916V85.7925V85.7935V85.7944V85.7953V85.7963V85.7972V85.7981V85.7991V85.8V85.8009V85.8019V85.8028V85.8038V85.8047V85.8057V85.8066V85.8076V85.8085V85.8095V85.8104V85.8114V85.8123V85.8133V85.8143V85.8152V85.8162V85.8172V85.8181V85.8191V85.8201V85.8211V85.8221V85.823V85.824V85.825V85.826V85.827V85.828V85.829V85.83V85.831V85.832V85.833V85.834V85.835V85.836V85.837V85.838V85.8391V85.8401V85.8411V85.8421V85.8432V85.8442V85.8452V85.8463V85.8473V85.8483V85.8494V85.8504V85.8515V85.8525V85.8536V85.8547V85.8557V85.8568V85.8579V85.8589V85.86V85.8611V85.8622V85.8633V85.8644V85.8655V85.8665V85.8676V85.8688V85.8699V85.871V85.8721V85.8732V85.8743V85.8754V85.8766V85.8777V85.8788V85.88V85.8811V85.8823V85.8834V85.8846V85.8857V85.8869V85.888V85.8892V85.8904V85.8915V85.8927V85.8939V85.8951V85.8963V85.8975V85.8987V85.8999V85.9011V85.9023V85.9035V85.9047V85.906V85.9072V85.9084V85.9097V85.9109V85.9121V85.9134V85.9146V85.9159V85.9172V85.9184V85.9197V85.921V85.9223V85.9236V85.9249V85.9261V85.9274V85.9287V85.9301V85.9314V85.9327V85.934V85.9353V85.9367V85.938V85.9394V85.9407V85.9421V85.9434V85.9448V85.9462V85.9475V85.9489V85.9503V85.9517V85.9531V85.9545V85.9559V85.9573V85.9587V85.9601V85.9615V85.963V85.9644V85.9659V85.9673V85.9688V85.9702V85.9717V85.9731V85.9746V85.9761V85.9776V85.9791V85.9806V85.9821V85.9836V85.9851V85.9866V85.9882V85.9897V85.9912V85.9928V85.9943V85.9959V85.9974V85.999V86.0006V86.0022V86.0038V86.0053V86.007V86.0086V86.0102V86.0118V86.0134V86.015V86.0167V86.0183V86.02V86.0216V86.0233V86.025V86.0266V86.0283V86.03V86.0317V86.0334V86.0351V86.0368V86.0386V86.0403V86.042V86.0438V86.0455V86.0473V86.049V86.0508V86.0526V86.0544V86.0562ZM15.238 97.8186H112.762C121.06 97.8186 127.82 91.0246 127.82 82.6874V1.53115C127.82 1.18446 127.649 0.848083 127.403 0.600792C127.157 0.353538 126.822 0.181152 126.476 0.181152C126.13 0.181152 125.795 0.353538 125.549 0.600792C125.303 0.848083 125.132 1.18446 125.132 1.53115V82.6874C125.132 89.3584 119.7 95.1187 112.762 95.1187C105.822 95.1187 100.392 89.6627 100.392 82.6874V42.1093V1.53115C100.392 1.18446 100.22 0.848083 99.9743 0.600792C99.7282 0.353538 99.3932 0.181152 99.0476 0.181152H1.52374C1.1781 0.181152 0.843089 0.353538 0.597037 0.600792C0.350946 0.848084 0.179688 1.18446 0.179688 1.53115V82.6874C0.179688 91.0246 6.93984 97.8186 15.238 97.8186Z" fill="black" stroke="black" stroke-width="0.25"/>
</g>
<defs>
<clipPath id="clip0_44_141">
<rect width="128" height="98" fill="white"/>
</clipPath>
</defs>
</svg>
