<svg width="150" height="150" viewBox="0 0 150 150" fill="none" xmlns="http://www.w3.org/2000/svg">
<g clip-path="url(#clip0_44_59)">
<path d="M117 26.9072H48.5637C48.0094 24.9193 46.8275 23.1637 45.1941 21.9023C43.5608 20.6408 41.5634 19.941 39.5 19.9072C36.9147 19.9753 34.4621 21.0667 32.6809 22.9416C30.8997 24.8166 29.9355 27.3219 30 29.9072V120.775C29.8084 122.12 29.9082 123.491 30.2928 124.794C30.6773 126.098 31.3374 127.303 32.2285 128.329C33.1196 129.355 34.2208 130.177 35.4576 130.741C36.6943 131.304 38.0376 131.594 39.3965 131.593H95.3565C96.0193 131.592 96.6548 131.329 97.1236 130.86C97.5923 130.391 97.8558 129.756 97.8565 129.093V126.407H110.356C111.019 126.407 111.655 126.143 112.124 125.675C112.592 125.206 112.856 124.57 112.856 123.907V120.907H117C117.796 120.907 118.559 120.591 119.121 120.029C119.684 119.466 120 118.703 120 117.907V29.9074C120 29.5134 119.922 29.1233 119.772 28.7593C119.621 28.3953 119.4 28.0646 119.121 27.786C118.843 27.5074 118.512 27.2864 118.148 27.1356C117.784 26.9848 117.394 26.9072 117 26.9072ZM109.856 123.407H43.3564C43.0018 123.407 42.6514 123.332 42.3282 123.186C42.0051 123.04 41.7166 122.827 41.482 122.561C41.2473 122.296 41.0719 121.983 40.9672 121.644C40.8626 121.306 40.8311 120.949 40.875 120.597C40.9487 120.063 41.1897 119.567 41.5632 119.179C41.9368 118.791 42.4237 118.531 42.9541 118.438C43.0857 118.418 43.2185 118.408 43.3516 118.408C43.7981 118.406 44.2369 118.524 44.6222 118.749C45.0074 118.975 45.325 119.3 45.5416 119.691L45.5426 119.693C45.7592 120.074 46.0734 120.39 46.4529 120.609C46.8324 120.828 47.2634 120.943 47.7017 120.94L109.856 120.927L109.856 123.407ZM39.3964 128.593C37.7871 128.594 36.2346 127.998 35.0391 126.921C33.8436 125.844 33.0899 124.362 32.9238 122.761C32.7578 121.16 33.1911 119.555 34.1401 118.255C35.089 116.956 36.4862 116.054 38.0614 115.725C38.494 115.639 38.9339 115.596 39.3749 115.596C39.9957 115.598 40.613 115.689 41.2084 115.865C40.0425 116.359 39.0835 117.242 38.4939 118.362C37.9042 119.483 37.7202 120.773 37.973 122.014C38.2259 123.255 38.8999 124.37 39.881 125.171C40.8621 125.972 42.0899 126.408 43.3563 126.407H94.8563V128.593H39.3964ZM39.5 22.9072C41.2886 22.978 42.9765 23.754 44.1946 25.0658C45.4126 26.3775 46.0617 28.1182 46 29.9072V115.265C44.8884 114.191 43.5323 113.404 42.0485 112.971C40.5647 112.539 38.9979 112.473 37.4834 112.781C35.8066 113.123 34.2558 113.918 33 115.08V29.9072C32.9382 28.1182 33.5873 26.3775 34.8053 25.0658C36.0234 23.754 37.7113 22.978 39.5 22.9072ZM117 117.907H49V29.9072H117V117.907Z" fill="black"/>
<path d="M56 63.4072H110C110.265 63.4072 110.52 63.3019 110.707 63.1143C110.895 62.9268 111 62.6724 111 62.4072V39.4072C111 39.142 110.895 38.8877 110.707 38.7001C110.52 38.5126 110.265 38.4072 110 38.4072H56C55.7348 38.4072 55.4804 38.5126 55.2929 38.7001C55.1054 38.8877 55 39.142 55 39.4072V62.4072C55 62.6724 55.1054 62.9268 55.2929 63.1143C55.4804 63.3019 55.7348 63.4072 56 63.4072ZM58 41.4072H108V60.4072H58V41.4072Z" fill="black"/>
<path d="M110 72.9072H87C86.7348 72.9072 86.4804 73.0126 86.2929 73.2001C86.1054 73.3877 86 73.642 86 73.9072V105.907C86 106.172 86.1054 106.427 86.2929 106.614C86.4804 106.802 86.7348 106.907 87 106.907H110C110.265 106.907 110.52 106.802 110.707 106.614C110.895 106.427 111 106.172 111 105.907V73.9072C111 73.642 110.895 73.3877 110.707 73.2001C110.52 73.0126 110.265 72.9072 110 72.9072ZM108 103.907H89V75.9072H108V103.907Z" fill="black"/>
<path d="M78.6899 93.4072H56.6899C56.2921 93.4072 55.9106 93.5653 55.6293 93.8466C55.348 94.1279 55.1899 94.5094 55.1899 94.9072C55.1899 95.3051 55.348 95.6866 55.6293 95.9679C55.9106 96.2492 56.2921 96.4072 56.6899 96.4072H78.6899C79.0878 96.4072 79.4693 96.2492 79.7506 95.9679C80.0319 95.6866 80.1899 95.3051 80.1899 94.9072C80.1899 94.5094 80.0319 94.1279 79.7506 93.8466C79.4693 93.5653 79.0878 93.4072 78.6899 93.4072Z" fill="black"/>
<path d="M78.6899 103.407H56.6899C56.2921 103.407 55.9106 103.565 55.6293 103.847C55.348 104.128 55.1899 104.509 55.1899 104.907C55.1899 105.305 55.348 105.687 55.6293 105.968C55.9106 106.249 56.2921 106.407 56.6899 106.407H78.6899C79.0878 106.407 79.4693 106.249 79.7506 105.968C80.0319 105.687 80.1899 105.305 80.1899 104.907C80.1899 104.509 80.0319 104.128 79.7506 103.847C79.4693 103.565 79.0878 103.407 78.6899 103.407Z" fill="black"/>
<path d="M78.6899 83.3506H56.6899C56.2921 83.3506 55.9106 83.5086 55.6293 83.7899C55.348 84.0712 55.1899 84.4528 55.1899 84.8506C55.1899 85.2484 55.348 85.6299 55.6293 85.9112C55.9106 86.1926 56.2921 86.3506 56.6899 86.3506H78.6899C79.0878 86.3506 79.4693 86.1926 79.7506 85.9112C80.0319 85.6299 80.1899 85.2484 80.1899 84.8506C80.1899 84.4528 80.0319 84.0712 79.7506 83.7899C79.4693 83.5086 79.0878 83.3506 78.6899 83.3506Z" fill="black"/>
<path d="M78.6899 73.2939H56.6899C56.2921 73.2939 55.9106 73.452 55.6293 73.7333C55.348 74.0146 55.1899 74.3961 55.1899 74.7939C55.1899 75.1918 55.348 75.5733 55.6293 75.8546C55.9106 76.1359 56.2921 76.2939 56.6899 76.2939H78.6899C79.0878 76.2939 79.4693 76.1359 79.7506 75.8546C80.0319 75.5733 80.1899 75.1918 80.1899 74.7939C80.1899 74.3961 80.0319 74.0146 79.7506 73.7333C79.4693 73.452 79.0878 73.2939 78.6899 73.2939Z" fill="black"/>
</g>
<defs>
<clipPath id="clip0_44_59">
<rect width="150" height="150" fill="white"/>
</clipPath>
</defs>
</svg>
