<?xml version="1.0" encoding="UTF-8" standalone="no"?>
<svg
   xmlns:dc="http://purl.org/dc/elements/1.1/"
   xmlns:cc="http://creativecommons.org/ns#"
   xmlns:rdf="http://www.w3.org/1999/02/22-rdf-syntax-ns#"
   xmlns:svg="http://www.w3.org/2000/svg"
   xmlns="http://www.w3.org/2000/svg"
   xmlns:sodipodi="http://sodipodi.sourceforge.net/DTD/sodipodi-0.dtd"
   xmlns:inkscape="http://www.inkscape.org/namespaces/inkscape"
   width="24"
   height="24"
   viewBox="0 0 23.999999 24"
   version="1.1"
   id="svg1132"
   sodipodi:docname="linkedin.svg"
   inkscape:version="0.92.4 (5da689c313, 2019-01-14)">
  <metadata
     id="metadata1136">
    <rdf:RDF>
      <cc:Work
         rdf:about="">
        <dc:format>image/svg+xml</dc:format>
        <dc:type
           rdf:resource="http://purl.org/dc/dcmitype/StillImage" />
        <dc:title></dc:title>
      </cc:Work>
    </rdf:RDF>
  </metadata>
  <sodipodi:namedview
     pagecolor="#ffffff"
     bordercolor="#666666"
     borderopacity="1"
     objecttolerance="10"
     gridtolerance="10"
     guidetolerance="10"
     inkscape:pageopacity="0"
     inkscape:pageshadow="2"
     inkscape:window-width="1920"
     inkscape:window-height="1016"
     id="namedview1134"
     showgrid="false"
     inkscape:pagecheckerboard="true"
     fit-margin-top="0"
     fit-margin-left="0"
     fit-margin-right="0"
     fit-margin-bottom="0"
     inkscape:zoom="33.16"
     inkscape:cx="12.4245"
     inkscape:cy="12.500584"
     inkscape:window-x="0"
     inkscape:window-y="27"
     inkscape:window-maximized="1"
     inkscape:current-layer="svg1132" />
  <defs
     id="defs1126">
    <style
       id="style1124">.a{fill:#fff;}</style>
  </defs>
  <path
     class="a"
     d="M 13.364,10.244416 Z"
     id="path1128"
     inkscape:connector-curvature="0"
     style="fill:#ffffff" />
  <path
     class="a"
     d="M 22.206447,5.6098348e-4 H 1.7935531 A 1.7491247,1.7384787 0 0 0 0,1.7351999 V 22.2648 a 1.7491247,1.7384787 0 0 0 1.7935531,1.734639 H 22.206447 A 1.7800314,1.7691973 0 0 0 24,22.2648 V 1.7351999 A 1.8119039,1.8008758 0 0 0 22.206447,5.6098348e-4 Z M 7.2727273,20.048264 H 3.6363636 V 9.2535686 H 7.2727273 Z M 5.4299167,7.7589183 v 0 A 1.8746831,1.8632729 0 0 1 3.3939394,5.8793261 1.9017264,1.8901516 0 0 1 5.4299167,4.000694 1.9017264,1.8901516 0 0 1 7.4668598,5.8793261 1.8244597,1.8133552 0 0 1 5.4299167,7.7589183 Z M 20.315345,20.046344 h -3.636364 v -5.781809 c 0,-1.445693 -0.53314,-2.457486 -1.842811,-2.457486 a 1.9374623,1.92567 0 0 0 -1.84281,1.30074 2.4078233,2.3931681 0 0 0 -0.09658,0.863959 v 6.023719 H 9.2604129 c 0,0 0.048292,-9.830901 0,-10.8474934 h 3.6363641 v 1.5416884 a 3.6392611,3.6171109 0 0 1 3.248098,-1.7826374 c 2.375951,0 4.169504,1.5416884 4.169504,4.8669724 z"
     id="path1130"
     inkscape:connector-curvature="0"
     style="fill:#1d808b;stroke-width:0.96288991;fill-opacity:1" />
</svg>
